<?xml version="1.0" standalone="no"?>
<!DOCTYPE svg PUBLIC "-//W3C//DTD SVG 1.1//EN" "http://www.w3.org/Graphics/SVG/1.1/DTD/svg11.dtd" >
<svg xmlns="http://www.w3.org/2000/svg">
<metadata>
This is a custom SVG webfont generated by Font Squirrel.
Copyright   : Copyright c 2008 by Font Diner All rights reserved
Designer    : Stuart Sandler
Foundry     : Font Diner
Foundry URL : httpwwwfontbroscom
</metadata>
<defs>
<font id="CoffeeServiceRegular" horiz-adv-x="1230" >
<font-face units-per-em="2048" ascent="1638" descent="-410" />
<missing-glyph horiz-adv-x="491" />
<glyph unicode=" "  horiz-adv-x="491" />
<glyph unicode="&#x09;" horiz-adv-x="491" />
<glyph unicode="&#xa0;" horiz-adv-x="491" />
<glyph unicode="!" horiz-adv-x="657" d="M20 25q0 55 47.5 123.5t102.5 68.5q43 0 70.5 -35t27.5 -67q0 -47 -57 -115t-102 -68q-37 0 -63 28t-26 65zM256 393q0 29 8 45q12 23 261 407t259 404q27 61 74 62q20 0 74 -21q4 -2 32.5 -9t45 -18.5t16.5 -31.5q0 -25 -31 -62q-27 -33 -284.5 -421l-298.5 -453 q-27 -43 -74 -43q-82 0 -82 141z" />
<glyph unicode="&#x22;" horiz-adv-x="536" d="M266 879q0 6 4 30q20 59 55 136t94.5 159t106.5 82q43 0 79 -24.5t36 -57.5t-98.5 -158.5t-175.5 -193.5q-29 -23 -54 -23q-47 1 -47 50zM551 879q0 12 6 30q35 106 110.5 241.5t143.5 135.5q43 0 79 -24.5t36 -57.5t-98.5 -158.5t-176.5 -193.5q-29 -23 -53 -23 q-47 1 -47 50z" />
<glyph unicode="#" horiz-adv-x="962" d="M123 578q0 16 6 28q2 2 4 9.5l3 11.5t4 11t6.5 11t8.5 10.5t11 10.5t13 8t17.5 6t22.5 4h70h65l76 137q-14 0 -31.5 1t-29 2t-17.5 1q-57 6 -57 52q0 16 6 28q0 2 3 11.5t5 12.5t6 11t7.5 13.5t10.5 11.5t15 10t19.5 7t25.5 5h68h61l105 195q2 2 5 10t5 11l6 10q4 6 10 8 t13 2q41 0 76.5 -42t35.5 -81q0 -41 -30 -90l-15 -25l123 -2l107 199q2 2 5 10t5 11l6 10q4 6 10 8t12 2q41 0 77 -42t36 -81q0 -45 -31 -90l-16 -29h70q27 0 49 -23.5t22 -52.5q0 -63 -108 -73q-33 -4 -127 -9q-39 -59 -86 -145h78q27 0 49 -23.5t22 -52.5q0 -63 -108 -74 q-35 -4 -131 -8q-53 -96 -86 -166q-16 -35 -39 -34q-14 0 -62 34q-45 31 -45 74q0 25 37 88h-96h-47l-86 -162q-14 -35 -39 -34q-12 0 -60 34q-45 27 -45 74q0 27 37 90q-16 0 -35.5 1t-32 2t-18.5 1q-57 7 -57 52zM553 686l137 -2q23 45 76 139h-88h-45z" />
<glyph unicode="$" horiz-adv-x="716" d="M-20 -2q0 35 24 70q20 25 184 270q-152 111 -151 197q0 51 53 51q39 0 78 -32t45 -73q8 -55 61.5 -97t98.5 -42q49 2 85 26.5t36 71.5q0 53 -52 101q-133 113 -133 268q0 135 134.5 271.5t265.5 136.5q33 0 59 -19q119 170 190 260q27 29 48 29q37 0 89 -50.5t52 -86.5 q0 -45 -49 -95q-86 -94 -199 -235q25 -53 25 -92q0 -61 -46.5 -144.5t-93.5 -83.5q-33 0 -56 46.5t-23 82.5q0 53 40.5 102.5t40.5 69.5q0 29 -32 29q-61 0 -150.5 -94t-89.5 -156q0 -51 91 -177t91 -191q0 -80 -76.5 -127t-162.5 -47q-63 0 -123 20q-172 -242 -228 -328 q-31 -49 -57 -49t-47.5 44t-21.5 73z" />
<glyph unicode="%" horiz-adv-x="1425" d="M205 4v19q0 106 84 190l872 883q-102 -41 -182 -41q-37 0 -74 10q-31 -139 -164 -298t-235 -159q-68 0 -133 72q-2 2 -16.5 15.5t-23.5 24.5t-21.5 28.5t-18.5 38t-6 40.5q0 141 137 303t233 201q18 6 37 6q14 0 27.5 -4t27 -12t19.5 -13t18 -18l13 -10 q12 -10 35.5 -23.5t41 -29t25.5 -39.5q27 -41 109 -41q158 0 346 139q33 33 51 33q20 0 39.5 -36t19.5 -58q0 -57 -80 -125q-201 -172 -531 -513l-531 -564q-61 -68 -91 -68q-24 0 -28 49zM428 760q0 -51 59 -51q57 0 194.5 179t137.5 257q0 31 -31 31q-74 0 -217 -163 t-143 -253zM721 172q0 141 137 303t234 199q16 8 36 8q14 0 27.5 -4t27 -12.5t19.5 -13.5t19 -17l12 -10q12 -10 36.5 -25.5t38 -27t26 -39t12.5 -68.5q0 -78 -64.5 -200t-163 -217t-178.5 -95q-72 0 -133 72l-21 20q-20 20 -31.5 33.5t-22.5 40t-11 53.5zM862 102 q0 -51 60 -51q57 0 194 179.5t137 256.5q0 33 -30 33q-74 0 -217.5 -164t-143.5 -254z" />
<glyph unicode="&#x26;" horiz-adv-x="825" d="M0 293q0 217 330 348q-23 96 -23 147q0 102 118 179t226 77q37 0 61.5 -11t33 -23.5t22.5 -43t25 -46.5q25 -41 24 -86q0 -35 -19.5 -77t-49.5 -42q-29 0 -27 26q8 33 8 60q0 53 -61 53q-47 0 -141.5 -42t-94.5 -83q0 -20 10 -51q113 33 170 33q16 0 28.5 -9.5t18 -18.5 t12.5 -30.5t11 -27.5q10 -27 10 -43q0 -55 -67 -56q-8 0 -24.5 1t-22.5 1q-84 0 -193 -42t-188.5 -108.5t-79.5 -129.5q0 -57 52 -83t118 -26q100 0 194 48.5t123 129.5q-115 -8 -158 -8q-109 0 -108 72q0 29 17.5 52.5t43.5 23.5q6 0 20.5 -1t22.5 -1q16 0 68.5 1t85.5 1 q205 0 254 -23q37 -16 37 -45q0 -39 -53 -49q-51 -8 -78 -10q-23 -150 -168.5 -252.5t-300.5 -102.5q-176 0 -234 134q-4 12 -16 37.5t-18.5 41t-12.5 44t-6 61.5z" />
<glyph unicode="'" horiz-adv-x="292" d="M287 879q0 6 4 30q20 59 55 136t94.5 159t106.5 82q43 0 79 -24.5t36 -57.5t-98.5 -158.5t-176.5 -193.5q-29 -23 -53 -23q-47 1 -47 50z" />
<glyph unicode="(" horiz-adv-x="722" d="M102 317q0 168 110 381t258 382t305 286t251 117q25 0 45 -10l64 -32l59 -30q20 -10 40.5 -22.5t29.5 -22.5q12 -14 12 -29q0 -49 -139 -49q-127 0 -319.5 -193.5t-334 -436t-141.5 -379.5q0 -156 113 -211q63 -29 63 -66q0 -18 -22.5 -31.5t-59.5 -13.5 q-121 0 -227.5 117.5t-106.5 242.5z" />
<glyph unicode=")" horiz-adv-x="681" d="M-225 102q0 51 139 52q125 0 317.5 193.5t335 436t142.5 377.5q0 156 -115 211q-61 29 -62 66q0 18 23 31.5t59 13.5q121 0 227.5 -118t106.5 -243q0 -168 -109.5 -381t-258 -382t-305 -285.5t-250.5 -116.5q-25 0 -45 10l-82.5 41t-76 39t-34.5 27q-12 16 -12 28z" />
<glyph unicode="*" horiz-adv-x="677" d="M246 1008q0 88 57 96h51h117l-41 158q-6 18 -6 22q0 27 46 50.5t77 23.5q57 0 67 -66q12 -70 21 -102l102 127q20 31 41 31q31 0 65 -27t34 -59q0 -35 -37 -74q-10 -10 -80 -88q25 0 48 -1t38 -1h16q27 0 66 -37t39 -70q0 -39 -60 -47q-61 -8 -217 -12q27 -111 49 -180 q4 -12 4 -17q0 -27 -46 -51.5t-76.5 -24.5t-38.5 27q-6 20 -43 156l-115 -144q-16 -25 -39 -24q-25 0 -58.5 26.5t-33.5 49.5q0 18 12 32l119 150q-98 4 -123 6q-55 9 -55 70z" />
<glyph unicode="+" horiz-adv-x="894" d="M123 621q0 109 72 118h63q156 0 252 -2l162 267q2 2 5 9t6 11l7 9q4 5 11.5 7t15.5 2q45 0 94 -39.5t49 -84.5q0 -37 -29 -74l-75 -111h61q31 0 50.5 -1t21.5 -1q35 0 82 -46t47 -87q0 -45 -72 -57q-78 -12 -330 -17q-121 -182 -178 -288q-16 -31 -45 -31q-35 0 -84 35.5 t-49 68.5q0 14 8 29q33 61 111 186q-117 2 -189 8q-67 11 -67 89z" />
<glyph unicode="," horiz-adv-x="526" d="M20 -143q0 68 80 214t144 146q43 0 70.5 -35t27.5 -67q0 -43 -125 -168t-168 -125q-29 0 -29 35z" />
<glyph unicode="-" horiz-adv-x="782" d="M143 621q0 76 26 97t97 21q78 0 282 -4t210 -4q35 0 81 -46t46 -87q0 -47 -72 -57q-100 -16 -340 -17q-184 0 -262 8q-68 11 -68 89z" />
<glyph unicode="." horiz-adv-x="512" d="M82 25q0 55 47 123.5t102 68.5q43 0 71 -35t28 -67q0 -47 -57.5 -115t-102.5 -68q-37 0 -62.5 28t-25.5 65z" />
<glyph unicode="/" horiz-adv-x="503" d="M-246 4v19q0 106 84 190l459 465l614 612q29 29 45 29q20 0 40 -36t20 -58q0 -57 -80 -125q-201 -172 -532 -513l-531 -564q-61 -68 -90 -68q-25 0 -29 49z" />
<glyph unicode="0" horiz-adv-x="991" d="M92 362q0 160 132 407t313.5 433.5t308.5 186.5q43 0 76 -25q29 -23 49 -44.5t29.5 -34.5t25.5 -42t29 -47q8 -12 46 -51t56.5 -84t18.5 -119q0 -150 -105.5 -373t-281 -401t-338.5 -178q-82 0 -121 39l-62 55q-45 41 -56 52t-36.5 39t-39 48.5t-25.5 46.5q-19 37 -19 92 zM305 250q0 -125 94 -125q102 0 256 184.5t262.5 402.5t108.5 318q0 47 -22.5 83t-65.5 36q-94 0 -246.5 -166t-269.5 -384t-117 -349z" />
<glyph unicode="1" horiz-adv-x="598" d="M41 160q0 35 16 69q43 92 202 341l276 419q-92 -43 -175 -102q-18 -16 -38 -17q-31 0 -31 35q0 16 10 33q16 31 244.5 238.5t253.5 218.5q8 2 18 2q16 0 30.5 -13.5t32 -37t29.5 -33.5q57 -53 58 -101q0 -31 -23 -53q-92 -106 -303 -441t-377 -698q-31 -66 -69 -65 q-14 0 -31 10t-27 23l-21 26q-11 14 -14 17q-61 70 -61 129z" />
<glyph unicode="2" horiz-adv-x="987" d="M20 199q0 139 185 293q66 55 447.5 302.5t406.5 278.5q31 45 31 78q0 63 -80 63q-88 0 -152.5 -30.5t-96.5 -70.5l-79 -97q-47 -57 -88 -90q-90 -70 -160 -70q-49 0 -79.5 35t-30.5 84q0 66 57 112q59 53 133 108.5t206 122t230 66.5q78 0 133 -41q16 -10 31 -31l43 -66 l57 -85q39 -55 39 -129q0 -92 -67 -176q-59 -72 -451.5 -301t-468.5 -311q12 0 145.5 12t219.5 12q338 0 338 -141q0 -43 -58 -43q-8 0 -23.5 1t-23.5 1q-432 0 -684 -113q-25 -10 -39 -10q-18 0 -32.5 8.5t-24.5 27.5t-16.5 32.5t-15.5 40t-11 34.5q-21 46 -21 93z" />
<glyph unicode="3" horiz-adv-x="968" d="M-82 377q0 49 27.5 80.5t72.5 31.5q47 0 73 -24.5t50 -73.5q20 -41 36 -63.5t50.5 -54t92 -47t137.5 -15.5q84 0 151.5 29.5t103.5 71.5t54 77t18 53q0 78 -92 123t-174 45q-23 0 -64.5 -7t-62.5 -7q-55 0 -55 80q0 53 17.5 128t45.5 93q18 12 43 12q18 0 59.5 -5 t61.5 -5q47 0 120 11.5t156 34t140 65.5t57 98q0 39 -45 59.5t-90 20.5q-115 0 -299 -92q-18 -6 -32.5 -6t-20.5 4q-33 12 -56.5 64t-23.5 93q0 33 18 52q23 20 190 58t265 38q49 0 85 -19.5t58.5 -56.5t37 -70.5t30.5 -86t27 -76.5q14 -33 14 -78q0 -123 -107.5 -205 t-248.5 -123q117 -121 116 -313q0 -197 -141 -309.5t-342 -112.5q-164 0 -330 103.5t-211 254.5q-12 41 -12 70z" />
<glyph unicode="4" horiz-adv-x="978" d="M20 418q0 37 25 78q18 29 431 440.5t425 429.5q20 31 57 31q14 0 63.5 -8.5t92.5 -10.5q74 -2 113 -37.5t39 -83.5q0 -39 -25 -63q-147 -158 -381 -662q86 4 115 5q43 0 85 -8.5t81 -35t39 -69.5q0 -45 -58 -45q-8 0 -20 1t-21 1q-70 0 -305 -37q-100 -229 -117 -317 q-6 -47 -77 -47q-59 0 -117.5 31.5t-58.5 74.5q0 10 2 14q6 23 94 197l-134 -25q-69 -12 -108 -20t-43 -8q-31 -6 -47 -6q-27 0 -44 12t-50 47q-56 68 -56 121zM313 473l295 35q178 356 234 510q-111 -84 -276 -257t-253 -288z" />
<glyph unicode="5" horiz-adv-x="942" d="M-41 344q0 35 13.5 54.5t29.5 19.5q10 0 18 -8q80 -94 173.5 -131t228.5 -37q186 0 292.5 96t106.5 207q0 76 -54 113.5t-134 37.5q-37 0 -77 -10t-66 -22l-55 -28l-36 -18q-16 -4 -18 -4q-10 0 -19.5 5.5t-19.5 17.5t-15 19.5t-17 28.5l-13 26q-31 61 -31 94t21 53 q33 39 170 244t139 207q49 72 160 71h73q264 0 308 -6q35 -6 63.5 -58t28.5 -99q0 -49 -35 -50q-23 0 -68 1t-67 1q-154 0 -266 -10q-53 -55 -175 -239q166 -27 273.5 -147t107.5 -271q0 -141 -98 -266t-239.5 -194t-280.5 -69q-164 0 -293 104.5t-129 266.5z" />
<glyph unicode="6" horiz-adv-x="976" d="M82 358q0 139 94 310.5t231.5 315.5t298 255t293.5 143q6 2 17 2q14 0 27.5 -7t38 -25.5t42.5 -30.5q59 -37 60 -92q0 -53 -56 -68q-201 -53 -350 -198q61 -6 114.5 -40t76.5 -81q14 -27 42.5 -55.5t43 -59.5t14.5 -88q0 -100 -71.5 -223t-171 -220.5t-207 -164 t-177.5 -66.5q-156 4 -237 123q-6 8 -32 32.5t-43 47t-32.5 72.5t-15.5 118zM270 258q0 -53 23.5 -84t66.5 -31q86 0 206 102.5t206 242t86 235.5q0 57 -19.5 81.5t-70.5 24.5q-104 0 -223 -98t-197 -233.5t-78 -239.5z" />
<glyph unicode="7" horiz-adv-x="808" d="M31 152q0 47 18 71q209 276 456 540.5t441 397.5h-31q-80 0 -236.5 -14t-232.5 -14q-51 0 -76.5 46t-25.5 105q0 35 22 56q24 24 64 26q4 2 21 2q80 0 288.5 -9t259.5 -16q39 -4 63.5 -24.5t41 -54t20.5 -39.5q43 -55 43 -115q0 -45 -32 -68q-233 -143 -553 -530 t-394 -520q-31 -51 -57 -51q-41 0 -70.5 79t-29.5 132z" />
<glyph unicode="8" horiz-adv-x="1013" d="M20 438v8q2 86 58.5 160t144.5 120t154.5 71.5t134.5 44.5q-57 68 -57 172q0 84 56 165t134 131t150.5 80.5t111.5 30.5q55 -2 87 -27.5t56.5 -68.5t39.5 -57q109 -113 108 -262q0 -135 -92 -211t-244 -119q164 -178 164 -338q0 -121 -79 -211t-188.5 -132t-223.5 -42 q-152 0 -254.5 72.5t-139.5 142.5q-6 12 -43 68.5t-57.5 105.5t-20.5 96zM195 348q0 -102 77.5 -152.5t188.5 -50.5q135 0 254 76t119 205q0 61 -39 115.5t-77 78t-54 23.5h-2q-41 -4 -101.5 -18.5t-152 -45t-152.5 -92t-61 -139.5zM643 926q0 -49 41 -49q88 0 242.5 82.5 t154.5 162.5q0 45 -30.5 78t-75.5 33q-96 0 -214 -104.5t-118 -202.5z" />
<glyph unicode="9" horiz-adv-x="989" d="M41 268v2q0 25 27 25q57 0 90 -68q53 -113 155 -112q86 0 176.5 66.5t133.5 146.5q-47 -20 -78 -21q-109 0 -219.5 143.5t-110.5 251.5q0 115 66.5 246t157.5 228.5t184.5 163t146.5 65.5q37 0 73 -21.5t74.5 -55.5t61.5 -46q76 -41 109.5 -66.5t59.5 -73.5t26 -120 q0 -178 -120 -426t-298 -433.5t-324 -185.5q-119 0 -252 88t-139 203zM397 582q0 -72 35 -116t88 -44q96 0 201.5 125t169 276.5t63.5 245.5q0 53 -17 75.5t-69 22.5q-94 0 -206.5 -104.5t-188.5 -243.5t-76 -237z" />
<glyph unicode=":" horiz-adv-x="548" d="M41 25q0 55 47 123.5t102 68.5q43 0 71 -35t28 -67q0 -47 -57.5 -115t-102.5 -68q-37 0 -62.5 28t-25.5 65zM303 428q0 55 47 124t101 69q43 0 70.5 -35t27.5 -70q0 -45 -56.5 -112.5t-101.5 -67.5q-37 0 -62.5 27.5t-25.5 64.5z" />
<glyph unicode=";" horiz-adv-x="581" d="M0 -143q0 68 80 214t143 146q43 0 71 -35t28 -67q0 -43 -125 -168t-168 -125q-29 0 -29 35zM336 428q0 55 47 124t100 69q43 0 72 -35t29 -70q0 -45 -57.5 -112.5t-102.5 -67.5q-37 0 -62.5 27.5t-25.5 64.5z" />
<glyph unicode="&#x3c;" horiz-adv-x="700" d="M123 582q0 41 27 94q37 84 69 92q12 10 31 18q23 12 331 132t326 129q16 4 25 4q23 0 39 -17.5t16 -42.5q0 -72 -121 -135q-127 -68 -460 -201l96 -70l91 -67l42 -31q23 -12 22 -79q0 -57 -22.5 -104.5t-65.5 -47.5q-12 0 -30 6q-74 29 -212.5 122t-183.5 138 q-20 23 -20 60z" />
<glyph unicode="=" horiz-adv-x="790" d="M20 410q0 47 26 83.5t71 43.5q8 2 57 2q84 0 307.5 -4.5t227.5 -4.5q27 0 49 -26.5t22 -59.5q0 -74 -108 -88q-113 -14 -340 -14q-176 0 -254 8q-58 9 -58 60zM174 711q0 47 24.5 83.5t71.5 43.5h58q84 0 306 -3.5t228 -3.5q27 0 49.5 -27.5t22.5 -60.5q0 -72 -109 -86 q-113 -14 -340 -14q-174 0 -256 8q-55 7 -55 60z" />
<glyph unicode="&#x3e;" horiz-adv-x="761" d="M0 238q0 53 30.5 100t78.5 72q33 16 512 200q-190 117 -269 195q-23 23 -22 59q0 43 33.5 116t70.5 73q4 0 21 -4q10 -4 99 -69l183 -133q94 -69 105 -75q23 -16 22 -80q0 -141 -139 -215q-117 -59 -348.5 -152.5t-313.5 -119.5q-12 -4 -28 -4q-35 0 -35 37z" />
<glyph unicode="?" horiz-adv-x="1019" d="M41 51q0 55 47 124t102 69q43 0 71 -35t28 -70q0 -45 -57.5 -112.5t-102.5 -67.5q-37 0 -62.5 27.5t-25.5 64.5zM205 358v13q0 119 119.5 213t380.5 207q213 90 314 171.5t101 137.5q0 51 -76 51q-98 0 -230 -78t-177 -164q-29 -55 -72 -55t-81 45t-38 86q0 10 5 23 q20 45 112 122.5t219 145t217 67.5q45 0 78 -20q29 -16 63 -70.5t58 -74.5q68 -57 68 -148q0 -152 -215 -307q-37 -27 -194 -96.5t-309.5 -155.5t-217.5 -172q-2 -4 -17 -4q-31 0 -68.5 20t-39.5 43z" />
<glyph unicode="@" horiz-adv-x="1380" d="M123 479q0 119 87 276.5t212 291t276.5 226.5t268.5 93q84 0 184 -67.5t170 -145.5q23 -27 67 -68t65.5 -64.5t40.5 -70.5t19 -106q0 -78 -41.5 -191.5t-112.5 -223.5t-180.5 -187.5t-226.5 -77.5q-125 0 -168 168q-137 -127 -206 -127q-61 0 -93 67q-10 27 -40.5 57.5 t-30.5 63.5q0 166 170 367t280 248q25 10 43 10q45 0 111 -55q31 -23 49 -78l17 26q9 14 15.5 22.5t8.5 12.5q18 20 45 21q41 0 83 -41t42 -82q0 -25 -18 -41q-39 -39 -174.5 -253t-135.5 -241q0 -29 19 -28q33 0 94 75q113 139 183.5 287t70.5 268q0 119 -77 192t-196 73 q-154 0 -326.5 -128t-284 -308.5t-111.5 -325.5q0 -152 113.5 -237t269.5 -85q109 0 219 35q-61 -43 -174 -81t-187 -38q-152 0 -296 159.5t-144 311.5zM586 367q0 -23 16 -23q41 0 139.5 108.5t163.5 198.5l113 160q-14 25 -37 25q-72 0 -233.5 -195.5t-161.5 -273.5z" />
<glyph unicode="A" d="M-184 47q0 8 10 29q29 43 186 239q-14 53 -14 64q0 27 20 31q27 10 95 26l557 654q309 356 342 385q37 31 63 30q12 0 27.5 -5t41 -15l50.5 -19q12 -4 50 -14t61.5 -18.5t52 -22.5t43 -35.5t14.5 -50.5q0 -16 -6 -41q-45 -131 -120 -401l-150 -556q-76 -286 -78 -294 q-31 -102 -125 -103q-68 0 -152 42t-84 102q0 37 33 123q27 74 74 225q-272 -27 -528 -107q-254 -319 -267 -340q-27 -41 -55 -41q-27 0 -66 35l-19 16q-11 9 -17.5 13t-13.5 11t-11 10.5t-8 8.5t-5 10t-1 9zM440 514q406 90 426 96l178 600q-166 -161 -604 -696z" />
<glyph unicode="B" horiz-adv-x="1292" d="M0 279q0 47 20 88q29 57 240 326l402 501q-195 -57 -271 -109q-29 -20 -61 -20q-53 0 -80 53t-27 113q0 53 43 69q59 27 157.5 61t280 75t326.5 41q170 0 261 -44t163 -186l25 -40q18 -30 28.5 -49t20.5 -47t10 -48q0 -96 -115.5 -200.5t-289.5 -176.5q125 -125 124 -289 q0 -109 -59 -195.5t-152.5 -139t-198 -79t-202.5 -26.5q-57 0 -125.5 15.5t-154.5 68.5t-136 135q-4 -4 -10 -16l-8 -17q-31 -59 -78 -59q-49 0 -91 60.5t-42 134.5zM309 305q70 -100 309 -100q178 0 316.5 69.5t138.5 196.5q0 133 -227 133q-172 0 -379 -80zM705 829 q98 2 247.5 50.5t272.5 129.5t123 154q0 109 -220 109q-59 0 -137 -10q27 -27 27 -48q0 -23 -25 -43q-46 -43 -288 -342z" />
<glyph unicode="C" horiz-adv-x="1118" d="M61 332q0 168 109 378t258.5 376.5t306 281.5t248.5 115q45 0 83 -30t77 -82t57 -68q102 -94 103 -197q0 -72 -85 -202t-149 -167q-29 -18 -63 -18q-55 0 -92 50t-37 108q0 49 39.5 100t90 98t62.5 69.5t12 37t-16 14.5q-123 0 -304 -178t-313.5 -407.5t-132.5 -368.5 q0 -80 32 -127t93 -47q14 0 56 8q111 31 325.5 250t300.5 327q8 12 23 13q35 0 35 -66q0 -55 -27 -121q-29 -72 -85 -157.5t-138 -179t-194.5 -155t-227.5 -61.5q-96 0 -161.5 24.5t-133.5 96.5q-12 14 -40 41t-36 36t-25.5 30.5t-23.5 36t-14 37t-10.5 47t-2.5 57.5z" />
<glyph unicode="D" horiz-adv-x="1347" d="M-20 162q0 43 16 76q27 63 244 382l389 556q-94 -43 -213 -107q-27 -14 -51 -14q-45 0 -103.5 50t-58.5 95q0 29 28 43q6 2 76 38t90 45l83 38q62 29 99 40l92 28q56 16 105 22t98 6q197 0 361 -121q2 0 22 -15l31 -24l35 -28q25 -20 38 -37l35 -43q22 -27 34 -53.5 t25 -59t19.5 -71.5t6.5 -80q0 -209 -134.5 -435.5t-349.5 -379t-426 -152.5q-119 0 -205.5 45t-115.5 123l-51 -102q-29 -63 -78 -64q-51 0 -96 62.5t-45 136.5zM369 301q0 -137 123 -137q139 0 316 157.5t300 368.5t123 357q0 121 -55.5 177t-169.5 56q-45 0 -93 -8 q41 -37 41 -86q0 -39 -26 -66q-18 -18 -108 -137l-220 -306q-131 -187 -229 -345q-2 -11 -2 -31z" />
<glyph unicode="E" horiz-adv-x="1026" d="M-41 160q0 37 14 71q25 72 274 475.5t359 565.5q-16 45 -16 82q0 35 14 41q33 14 291 42.5t334 30.5h35q61 0 99 -12t99 -55q35 -23 35 -62q0 -29 -20 -30q-35 -12 -535 -92q-154 -195 -340 -467q313 47 438 47q29 0 73 -30t65 -56q6 -12 6 -19q0 -37 -56 -37 q-92 0 -316 -45t-392 -137l-158 -262q117 27 268.5 49.5t198.5 22.5q63 0 122.5 -32t59.5 -89v-4q0 -16 -106 -42l-291 -72q-184 -46 -317 -101q-4 -2 -19 -2q-53 0 -135 57q-84 60 -84 162z" />
<glyph unicode="F" horiz-adv-x="950" d="M-82 106q0 16 16 46q2 2 113 184l233 379l243 386q122 189 159 232q18 20 74 21q41 0 73 -8q324 66 502 65q70 0 147.5 -39t77.5 -98q0 -8 -6 -19q-10 -16 -103 -27t-252 -38t-290 -76q-168 -225 -284 -397q199 19 279 19q15 0 26 -1q43 0 103.5 -30.5t60.5 -69.5 q0 -35 -56 -43q-18 -2 -122.5 -17.5t-159 -24.5t-143.5 -31.5t-156 -51.5q-201 -307 -312 -510q-14 -27 -41 -27q-51 0 -106 66l-31 36l-25.5 31t-13.5 21t-6 22z" />
<glyph unicode="G" horiz-adv-x="1236" d="M61 358q0 143 122 345t284 367t320 281q156 114 230 113h3q61 -2 101 -21.5t100 -64.5q2 -2 61 -37.5t94 -74.5q47 -49 47 -117q0 -82 -77 -211q-84 -129 -179 -129q-47 0 -78.5 30.5t-31.5 77.5q0 49 29.5 101.5t72.5 83.5q90 63 90 104q0 43 -53 43q-119 0 -334 -190.5 t-382 -428t-167 -364.5q0 -96 101 -96q123 0 293 140.5t174 215.5q-63 0 -138 6q-68 10 -67 89q0 74 24.5 96t98.5 22q78 0 281.5 -4t209.5 -4q33 0 80 -46t47 -87q0 -47 -71 -57q-70 -10 -228 -15q2 -10 2 -28q0 -84 -58 -172t-142 -156t-174.5 -124t-157 -86t-84.5 -30 q-33 2 -59.5 10.5t-55.5 27t-39 25.5t-43 37.5t-37 32.5l-61 49q-43 34 -60.5 50t-43 47t-35 66.5t-9.5 82.5z" />
<glyph unicode="H" horiz-adv-x="1259" d="M-82 565q0 33 31 43q51 12 317 37q442 674 463 694q20 27 53 27q47 0 122 -39t75 -80q0 -20 -16 -43l-359 -526q328 27 406 31l436 663q41 66 94 66q66 0 138.5 -39t72.5 -96q0 -39 -33 -72q-127 -113 -397 -545t-397 -674q-23 -41 -58 -41q-23 0 -69.5 19.5t-59.5 23.5 q-76 23 -75 92q0 20 10 48q45 96 217 366l-418 -45q-225 -352 -285 -459q-29 -51 -86 -51t-116.5 40t-59.5 95q0 23 10 37q6 10 195 301q-68 -10 -84 -10q-47 0 -87 47t-40 90z" />
<glyph unicode="I" horiz-adv-x="505" d="M-61 156q0 37 24 73q29 41 184 286l324 501q168 256 258 377q23 31 51 30q49 0 128 -55t79 -100q0 -41 -39 -82q-170 -186 -401.5 -560t-349.5 -603q-37 -74 -86 -74q-53 0 -112.5 76t-59.5 131z" />
<glyph unicode="J" horiz-adv-x="948" d="M-246 328q0 74 66 73q18 0 30 -4q86 -23 122 -60q34 -36 34 -69q0 -43 17 -74q18 -36 73 -55q37 -8 56 -8q127 0 288.5 225.5t507.5 849.5q-6 0 -31.5 -6t-35.5 -6q-33 0 -64 25.5t-35 46.5q-16 55 -16 71q0 25 20 27q2 0 157 11t304.5 20.5t179.5 9.5q55 0 116 -36 t61 -73q0 -35 -86 -34q-154 0 -265 -11q37 -23 37 -51q0 -18 -14 -39q-51 -76 -131 -217l-147 -263q-67 -122 -161 -261t-183 -236.5t-205.5 -163t-235.5 -65.5q-78 0 -156 27q-135 45 -219 151.5t-84 194.5z" />
<glyph unicode="K" horiz-adv-x="1054" d="M-102 150q0 55 30 94l199 281l354 499q182 254 279 373q23 29 53 28q55 0 144.5 -43t89.5 -88q0 -41 -56 -96q-131 -131 -317 -381q119 43 369.5 207t531.5 377q18 12 43 12q41 0 77 -30.5t36 -77.5q0 -31 -15 -60q-6 -12 -33.5 -34.5t-73.5 -52.5l-98 -61 q-51 -32 -121 -72l-127 -72l-136 -73l-123 -67l-114 -61l-87 -47q-2 -23 -2 -72q0 -82 10 -161t34.5 -161t76 -135t122.5 -61q16 0 28.5 -12.5t12.5 -28.5q0 -29 -51 -56q-61 -31 -155 -30q-66 0 -123.5 22.5t-119 79.5t-104.5 174t-55 285q-281 -397 -332 -504 q-43 -94 -92 -94q-57 0 -106 70t-49 129z" />
<glyph unicode="L" horiz-adv-x="808" d="M-41 164q0 16 6 31q53 102 404.5 658t378.5 589q23 31 122 31q43 0 93.5 -70t50.5 -115q0 -39 -23 -69q-66 -86 -347.5 -481.5t-385.5 -561.5q168 20 369 21q20 0 46.5 -1t35.5 -1q41 -4 78.5 -40t37.5 -65q0 -27 -39 -33q-92 -8 -369.5 -59t-305.5 -51h-2 q-35 4 -92.5 82t-57.5 135z" />
<glyph unicode="M" horiz-adv-x="1800" d="M-102 121q0 35 24 63q27 33 401.5 601.5t405.5 627.5q14 29 35 29q14 0 32.5 -11.5t48.5 -35t48 -35.5q14 -8 52 -27.5t58.5 -32t39 -41t18.5 -67.5q0 -31 -8.5 -61.5t-89 -286.5t-93.5 -340q-6 -39 17 -39q20 0 55 24q82 57 273 242l408 403l232 234q29 27 64 27 q41 0 115 -41q66 -39 91 -69t46 -101q8 -27 8 -45q0 -8 -3 -15.5t-6 -11.5t-12.5 -15.5t-15.5 -19.5l-136 -189l-134 -200l-122 -191l-110 -178l-86 -143l-62 -105q-28 -46 -28 -48q-37 -59 -90 -59.5t-112.5 62t-59.5 117.5q0 23 10 41q158 309 342 631q-18 -16 -183 -190 t-294 -280.5t-207 -106.5q-104 0 -163.5 75.5t-59.5 182.5q0 100 23 295l-272 -419q-204 -318 -232 -358q-37 -49 -98 -49q-59 0 -114.5 48.5t-55.5 107.5z" />
<glyph unicode="N" horiz-adv-x="1296" d="M-143 113q0 29 16 67q12 23 399 593l396 583q20 31 61 30q33 0 107 -30q18 -8 76.5 -20.5t91.5 -39.5q4 -4 16 -14t17 -15t13.5 -15.5t11.5 -19.5t3 -20q0 -12 -2 -20q-8 -25 -48 -125t-70 -186t-63.5 -232.5t-45.5 -294.5q82 111 394 568.5t345 509.5q16 31 72 30 q61 0 131.5 -44t70.5 -101q0 -41 -49 -88q-223 -217 -860 -1172q-61 -92 -135 -92q-47 0 -111 47q-8 6 -55 30t-72.5 55.5t-25.5 86.5q0 70 18.5 178.5t34.5 184.5t50 213t40 166l-344 -512q-233 -354 -258 -398q-23 -41 -78 -41t-101 40.5t-46 97.5z" />
<glyph unicode="O" horiz-adv-x="1161" d="M102 342q0 129 89.5 326.5t214 375t273 305.5t257.5 128q33 0 70 -17q37 -20 58 -45.5t46 -65.5t55 -71q23 -23 63 -55.5t58.5 -51t33.5 -60.5t15 -101q0 -125 -77.5 -306.5t-195.5 -346t-276.5 -282.5t-302.5 -118q-74 0 -116 37q-45 43 -107.5 92t-88.5 78t-50 78 q-19 43 -19 100zM342 268q0 -49 24.5 -87t71.5 -38q100 0 263 186.5t284 405.5t121 316q0 43 -21.5 77.5t-62.5 34.5q-92 0 -256 -162.5t-294 -380t-130 -352.5z" />
<glyph unicode="P" horiz-adv-x="1120" d="M-41 180q0 27 12 51q23 47 231 358l351 513q-129 -59 -160 -84q-23 -16 -43 -17q-43 0 -74.5 58.5t-31.5 105.5q0 27 24 49q55 49 337 148.5t456 99.5q63 0 102 -16t55.5 -35.5t45 -66t53.5 -74.5q111 -127 110 -234v-14q-4 -84 -72.5 -187.5t-174 -193.5t-251 -150.5 t-286.5 -60.5q-100 0 -197 33q-201 -301 -247 -412q-35 -88 -84 -88q-33 0 -72 43q-84 98 -84 174zM578 655q78 10 182 50t209.5 100.5t178.5 152t73 187.5q0 63 -41 83.5t-113 20.5q-63 0 -127 -12q12 -16 12 -32.5t-12 -39.5z" />
<glyph unicode="Q" horiz-adv-x="1136" d="M41 414q0 127 94 312t227.5 346t287 275.5t259.5 114.5q47 0 84 -24q16 -10 33.5 -28.5t30.5 -36.5l36 -50q24 -33 44 -57q25 -31 80 -83.5t74.5 -91t19.5 -108.5v-14q-8 -227 -208 -507t-396 -394q16 -117 49 -207q6 -12 6 -21q0 -33 -49 -33q-119 0 -129 78 q-6 49 -19 119q-102 -39 -164 -39q-59 0 -86 33l-86 94l-75 83q-25 28 -51.5 68t-45.5 81q-16 43 -16 90zM272 322q0 -53 32 -92.5t85 -39.5q57 0 133 52q-29 152 -39 182q-6 12 -6 22q0 29 55.5 55.5t88.5 26.5q39 0 47 -73q8 -76 8 -88q172 162 308 361.5t136 326.5 q0 51 -28.5 90t-77.5 39q-104 0 -283.5 -159t-319 -367.5t-139.5 -335.5z" />
<glyph unicode="R" horiz-adv-x="1169" d="M-143 117q0 39 28 90q66 111 387 575l445 639q12 18 37 19q68 0 128 -72t66 -141q227 143 355 143q43 0 74.5 -19.5t45 -42t34 -65.5t30.5 -61q20 -33 20 -86q0 -145 -131 -284.5t-307 -218.5t-319 -79h-35q2 -63 29.5 -133t113.5 -156t219 -143q33 -14 33 -43 q0 -35 -33 -58.5t-67 -23.5q-33 0 -89.5 14.5t-136 55.5t-154.5 100t-143.5 160.5t-103.5 224.5q-70 -104 -328 -535q-25 -39 -59 -38q-45 0 -92 65.5t-47 112.5zM614 731q0 -39 60 -39q76 0 223 85t268 201t121 187q0 49 -47 49q-141 0 -342 -157.5t-276 -300.5 q-7 -13 -7 -25z" />
<glyph unicode="S" horiz-adv-x="1003" d="M-82 399q0 35 22.5 56.5t57.5 21.5q57 0 116.5 -49t67.5 -109q12 -86 92 -148q77 -60 144 -60h4q72 0 126 38.5t54 108.5q0 86 -76 150q-201 174 -200 403q0 72 24 158q45 143 237.5 298.5t338.5 155.5q115 0 186 -149q16 -35 54 -82t60.5 -93t22.5 -108 q0 -92 -69.5 -218t-139.5 -126q-49 0 -83.5 70.5t-34.5 126.5q0 94 71 166q51 51 51 92t-49 41q-94 0 -228 -141.5t-134 -231.5q0 -55 43 -130t94 -138.5t94 -144.5t43 -144q0 -121 -114.5 -191.5t-243.5 -70.5q-168 0 -330 102q-150 96 -225.5 188t-75.5 158z" />
<glyph unicode="T" horiz-adv-x="782" d="M41 143q0 33 8 58q18 63 237 403l380 578q-12 -2 -127 -14.5l-185 -20.5q-8 -2 -24 -2q-47 0 -96.5 57.5t-49.5 104.5q0 61 86 73q47 6 423 17.5t636 11.5q231 0 264 -10q49 -14 49 -62q0 -51 -71 -53q-182 -14 -494 -53q-215 -260 -438 -615.5t-324 -592.5 q-25 -57 -46 -81t-48 -24q-74 0 -127 74.5t-53 150.5z" />
<glyph unicode="U" horiz-adv-x="1220" d="M20 268q0 119 92.5 300.5t200.5 327.5l224 294q115 147 133 176q8 10 41 10q41 0 86 -18.5t69 -57.5q59 -100 60 -129q0 -23 -33 -61q-2 -2 -72 -84l-107 -129l-115 -143q-77 -96 -124 -164l-99 -148q-52 -80 -78 -141t-26 -100q0 -27 23 -27q16 0 37 6 q141 37 373.5 275.5t416 487.5t289.5 429q31 57 74 58q49 0 117.5 -83t68.5 -137q0 -35 -31 -73l-564 -742q-290 -391 -374 -540q-33 -49 -75 -50q-49 0 -78 71t-29 128q0 41 15 84q-154 -88 -252 -88q-18 0 -37 4t-30 8t-24.5 14.5t-19.5 14.5t-18 16l-15 15l-34 29l-30 28 q-9 8 -22.5 23.5t-18.5 30t-9.5 36.5t-4.5 49z" />
<glyph unicode="V" horiz-adv-x="794" d="M-10 201q0 12 2 18q14 66 237.5 553.5t274.5 628.5q16 49 76 49q66 0 142.5 -46t76.5 -108q0 -18 -8 -41q-8 -20 -86 -178l-163 -341q-85 -183 -116 -279q49 47 237 271l368 428q181 204 255 245q84 45 158 45q68 0 67 -37q0 -20 -26 -47q-170 -156 -333 -335 t-266.5 -304t-228.5 -303t-161 -236l-125 -194q-31 -51 -64 -51q-6 0 -22 4q-295 78 -295 258z" />
<glyph unicode="W" horiz-adv-x="1583" d="M-41 246q0 25 14 57q6 14 156 280l307 542q158 278 172 304q8 14 29 15q14 0 38.5 -6t76 -20.5t94.5 -24.5q14 -4 34.5 -33t20.5 -57q0 -16 -8 -31l-158 -249l-243 -391q-106 -175 -156 -272q123 121 346 360l398 429q175 190 200 213q33 31 70 31q35 0 139 -51.5 t104 -75.5q0 -10 -8 -21q-2 -4 -73 -119l-138 -232q-68 -118 -144.5 -277.5t-109.5 -276.5q94 115 461 523.5t401 441.5q100 92 205 92q74 0 74 -43q0 -25 -33 -58q-547 -563 -1095 -1257q-49 -66 -121 -66q-63 0 -150.5 57.5t-87.5 114.5q0 18 6 43q4 10 122 272.5 t151 352.5q-129 -109 -403 -395l-396 -424q-37 -39 -66 -39q-23 0 -82 35q-68 39 -107.5 107.5t-39.5 148.5z" />
<glyph unicode="X" horiz-adv-x="1013" d="M-246 137q0 63 62 99q305 178 700 458q-43 295 -121 498q-6 18 -6 33q0 37 51 92q84 84 125 84q25 0 39 -21q53 -70 121 -532q483 360 668 555q39 43 82 43q53 0 82.5 -58.5t29.5 -115.5q0 -55 -26 -94q-104 -160 -791 -654l57 -458v-7q0 -35 -53 -56t-112 -21 q-55 0 -66 18q-6 12 -10 34.5t-9.5 61.5t-7.5 74t-7 97.5t-9 103.5q-469 -328 -567 -383q-14 -10 -37 -11q-57 0 -126 52.5t-69 107.5z" />
<glyph unicode="Y" horiz-adv-x="839" d="M-143 104q0 27 22 48q10 8 63 58l151 146l192 183v61q0 139 6 450.5t6 331.5q0 39 31.5 67t83.5 28q70 0 116.5 -42t46.5 -112q0 -18 -2 -27q-35 -287 -34 -440q0 -55 2 -80q614 559 807 637q41 16 92 17q49 0 103 -28t54 -71q0 -29 -34 -57q-285 -227 -726.5 -622.5 t-707.5 -706.5q-23 -29 -53 -29q-53 0 -136 69.5t-83 118.5z" />
<glyph unicode="Z" horiz-adv-x="1130" d="M-225 154v12q4 63 280.5 290.5t552.5 425.5l463 320h-8q-98 0 -301 -32.5t-350 -73.5q-20 -4 -25 -4q-25 0 -38 16t-21 47l-9 33q-20 57 -20 102q0 82 72 84q18 2 171.5 20.5t340 36t311.5 17.5q55 0 96 -5t89 -20.5t74 -53.5t26 -95q0 -39 -42 -119t-73 -104 q-16 -12 -256 -168l-505 -341q-265 -185 -382 -294q135 25 404.5 54.5t382.5 29.5q70 0 147.5 -46t77.5 -110q0 -31 -25 -55q-14 -14 -150 -16.5t-419 -38t-586 -125.5q-18 -6 -35 -7q-53 0 -108 64q-14 14 -52 33.5t-60.5 46.5t-22.5 76z" />
<glyph unicode="[" horiz-adv-x="808" d="M-61 150q0 37 16 81q31 74 301 480.5t385 560.5q-12 39 -12 74q0 41 16 49q35 14 221.5 42.5t253.5 30.5h33q68 0 148.5 -33.5t80.5 -93.5q0 -27 -22 -32q-61 -18 -379 -84q-141 -168 -368.5 -473.5t-366.5 -540.5q266 72 317 72q59 0 117.5 -30t58.5 -87q0 -6 -2 -8 q-2 -16 -69.5 -41t-220 -74t-281.5 -100q-4 -2 -19 -2q-76 0 -142 66.5t-66 142.5z" />
<glyph unicode="\" horiz-adv-x="1044" d="M430 1461q0 26 21 26q37 0 135 -53.5t129 -96.5q27 -34 27 -76q0 -6 -1 -12q-3 -33 -2 -72q0 -181 54 -499q66 -387 129 -653q6 -24 6 -40q0 -34 -27 -34q-41 0 -133 70.5t-131 121.5q-33 45 -39 88q0 6 -80 534q-88 582 -88 696z" />
<glyph unicode="]" horiz-adv-x="811" d="M-205 160q0 33 15 39q33 14 222 28.5t277 14.5q41 0 58 -4q2 70 49 172q41 98 184 344l285 467l-219 -47h-9q-41 0 -76.5 66.5t-35.5 119.5q0 29 14 35q33 14 216 42.5t251 30.5h33q39 0 93 -13t102.5 -45t48.5 -73q0 -10 -3.5 -16t-12.5 -10t-13 -6t-17.5 -5.5 t-15.5 -3.5q8 -20 8 -30q0 -31 -39 -80q-162 -186 -341 -500.5t-281 -536.5q-35 -70 -76 -73q-102 -27 -598 -129h-6q-41 0 -77 77t-36 136z" />
<glyph unicode="^" horiz-adv-x="749" d="M164 602q0 14 10 25q74 96 296 423.5t259 366.5q20 23 70.5 40.5t83.5 17.5q37 0 115.5 -22.5t78.5 -49.5q0 -12 -12 -37l-51 -100q-37 -72 -50 -104l-44 -109q-31 -78 -62 -181.5t-72 -255.5q-6 -25 -29.5 -42t-45.5 -17q-53 0 -54 80q0 78 61.5 279.5t65.5 224.5 q-78 -88 -209 -280.5t-161 -248.5q-35 -68 -127 -67q-123 0 -123 57z" />
<glyph unicode="_" horiz-adv-x="718" d="M-205 49q0 109 72 119h12q10 0 27.5 1t36.5 1q88 0 272 -2t337 -4t163 -2q35 0 82 -47t47 -88q0 -45 -74 -58q-100 -16 -504 -16q-338 0 -403 10q-68 8 -68 86z" />
<glyph unicode="`" horiz-adv-x="1191" d="M809 1327q-3 6 -3 11q0 10 13 10q31 0 121 -38t125 -67q33 -27 39 -61q12 -63 98 -277q7 -15 7 -23q0 -15 -19 -16q-4 0 -8 2q-16 2 -66.5 22.5t-66.5 24.5q-33 4 -68 37q-23 18 -33 39q-116 268 -139 336z" />
<glyph unicode="a" horiz-adv-x="905" d="M0 186q0 102 62.5 225.5t150.5 221.5t173 171t136 95q33 12 49 12q53 0 129 -65q35 -25 58 -90q33 53 47 71q23 25 51 25q49 0 97 -47t48 -96q0 -29 -20 -50q-49 -47 -201.5 -255.5t-152.5 -239.5q0 -35 15 -52.5t34 -17.5q117 0 325 254q14 16 31 17q27 0 27 -35 q0 -45 -47 -107q-98 -135 -207 -220t-180 -85q-80 0 -127 56.5t-68 140.5q-162 -147 -240 -148q-72 0 -106 80q-12 29 -48 64.5t-36 74.5zM195 150q0 -27 18 -27q49 0 166 130t192.5 232.5l135.5 190.5q-16 29 -46 29q-55 0 -169.5 -113t-205.5 -248t-91 -194z" />
<glyph unicode="b" horiz-adv-x="843" d="M10 285q0 80 164 308l348 463q184 234 211 298q14 35 62 35q61 0 116.5 -41t55.5 -103q0 -25 -42 -63.5t-123 -122.5t-151 -193h17q27 0 48 -6t40.5 -19.5t29.5 -23.5l29 -30l25 -25q55 -55 55 -162q0 -88 -101.5 -245.5t-242.5 -284.5t-238 -127q-47 0 -73.5 15 t-63.5 52q-16 16 -54 46t-57.5 49.5t-37 66.5t-17.5 113zM188 190q0 -57 68 -57q70 0 253 217t183 322q0 57 -65 57q-41 0 -147.5 -102.5t-199 -234.5t-92.5 -202z" />
<glyph unicode="c" horiz-adv-x="679" d="M20 315v29q6 80 113 218t242 245.5t213 107.5q35 0 57.5 -22.5t35.5 -55t21 -40.5q59 -59 60 -150q0 -49 -78 -143t-133 -94q-18 0 -41 32.5t-23 63.5q0 47 54 133q-96 -53 -228.5 -200.5t-132.5 -229.5q0 -31 35 -67t82 -36q88 0 171 36t132 79l100 90q51 47 74 60 q4 2 8 2q20 0 21 -43v-6q0 -18 -44 -73.5t-109.5 -119t-158 -113t-172.5 -49.5q-150 0 -223 140q-10 18 -29.5 49.5t-25.5 46t-13.5 43t-7.5 67.5z" />
<glyph unicode="d" horiz-adv-x="929" d="M0 182q0 119 108.5 294t250 302t227.5 127q53 0 82.5 -24.5t48 -60.5t33.5 -46q223 346 432 594q12 14 28 14q35 0 97.5 -52t62.5 -87q0 -25 -31 -55q-201 -205 -449.5 -581t-248.5 -501q0 -35 31 -34q82 0 375 338q8 8 20 8q16 0 27.5 -14.5t11.5 -34.5q0 -14 -4 -21 q-14 -27 -55 -82t-108 -133t-149.5 -133t-152.5 -55q-61 0 -111.5 43t-76.5 100q-147 -125 -220 -125q-88 0 -137 72q-6 8 -33.5 35.5t-43 54t-15.5 57.5zM201 111q0 -25 26 -25q43 0 124 79t161 226l150 246q-12 25 -39 25q-12 0 -27 -7q-43 -16 -137 -116.5t-176 -227 t-82 -200.5z" />
<glyph unicode="e" horiz-adv-x="722" d="M-10 268q0 94 116.5 256t267 288t238.5 128q43 0 65.5 -17.5t67.5 -84.5q4 -4 21 -30l25 -39q8 -13 16 -37.5t8 -49.5q0 -123 -108.5 -235.5t-252 -174t-259.5 -61.5h-7q-16 -45 -16 -78q0 -92 115 -92q106 0 207.5 58.5t184.5 137t91 82.5q2 2 8 3q16 0 31.5 -16.5 t15.5 -37.5q0 -4 -4 -20q-61 -111 -223 -219.5t-266 -108.5q-55 0 -118.5 31t-113.5 86q-6 8 -27.5 29.5t-31.5 35t-24.5 38t-20.5 56t-6 72.5zM270 362h3q95 0 230 126q136 128 136 180q0 10 -10 10q-68 0 -183 -114t-176 -202z" />
<glyph unicode="f" horiz-adv-x="526" d="M-420 -549q12 139 192.5 459.5t398.5 633.5l404 559q186 247 222 269q23 14 47 14q51 0 97 -55t46 -94q0 -10 -4 -14q-119 -143 -388 -500.5t-351 -484.5q70 -10 124 -57q52 -44 52 -107q0 -142 -82 -366t-225.5 -413.5t-284.5 -189.5q-61 0 -154.5 101.5t-93.5 222.5v22 zM-252 -705q0 -76 41 -75q49 0 151.5 128t200 331.5t115.5 375.5v2q0 16 -25.5 26.5t-52.5 10.5q-10 0 -14 -2q-23 -6 -123 -155.5t-196.5 -345.5t-96.5 -296z" />
<glyph unicode="g" horiz-adv-x="794" d="M-225 -168q1 37 33 43h6q31 0 70 -18q44 -20 59 -45q56 -95 123 -96q7 0 14 1q66 8 149.5 111.5t112.5 204.5q-18 -20 -54 -40t-50 -22q-20 -2 -42 4.5t-33 13.5t-30.5 23.5t-23.5 18.5l-41 22q-41 23 -63.5 57.5t-29.5 96.5q-1 7 0 15q0 92 88 240q96 161 238.5 293 t249.5 144q35 4 52.5 -4t30.5 -31.5t23 -32.5l60 -53l51 90q16 29 41 33h4q16 0 41 -14q29 -16 37 -19q84 -23 88 -65v-4q0 -20 -18 -49q-109 -152 -224.5 -371t-185.5 -365.5t-169 -262.5t-206 -130q-37 -5 -72 -4q-120 0 -208 54q-121 74 -121 161zM166 100q2 -21 40 -21 q6 0 13 1q53 6 232 253q172 239 172 309q0 22 -25 23q-6 0 -14 -1q-68 -8 -171.5 -116t-177.5 -241q-69 -123 -70 -195q1 -6 1 -12z" />
<glyph unicode="h" horiz-adv-x="915" d="M-61 104q0 53 38 121q33 59 338.5 554l352.5 567q20 33 77 32q51 0 101.5 -35.5t50.5 -85.5q0 -25 -18 -53q-14 -20 -124 -168l-238 -324q-128 -177 -200 -288q102 102 265 250.5t209 183.5q37 31 71 31q41 0 101.5 -69.5t60.5 -110.5q0 -23 -23 -39q-61 -35 -209.5 -254 t-148.5 -303q0 -37 33 -37q43 0 146.5 81t181.5 185q27 33 47 33q29 0 28 -41q0 -16 -4 -27q-27 -74 -158 -210t-249 -136q-84 0 -136.5 58.5t-52.5 142.5q0 147 174 399q-92 -59 -216 -189t-216 -239.5t-104 -118.5q-16 -12 -47 -12q-47 0 -89 27.5t-42 74.5z" />
<glyph unicode="i" horiz-adv-x="485" d="M-10 180q16 217 387 703q33 43 65 43q39 0 112 -45q71 -44 71 -76q0 -19 -25 -49q-166 -186 -293 -395t-133 -279q0 -20 10 -21q61 0 189.5 106.5t234.5 227.5q12 12 21 13q27 0 27 -51q0 -7 -1 -15q0 -27 -12 -47q-35 -59 -201 -201.5t-252 -142.5q-80 0 -143 73 q-58 66 -58 141q0 8 1 15zM588 1250q47 34 137 34q88 0 131 -36q39 -33 39 -78v-9q-4 -53 -54 -95t-128 -42q-82 0 -131 44q-45 41 -46 91q0 54 52 91z" />
<glyph unicode="j" horiz-adv-x="440" d="M-748 -358q0 86 78 175t194 158.5t219 118.5t187 76q268 391 473 743q25 41 64 41q18 0 63 -15t68 -17q61 -8 61 -58q0 -45 -55 -104q-92 -100 -354 -512q78 12 115 12q86 0 86 -30.5t-60 -36.5q-92 -8 -201 -35q-348 -541 -434 -619q-117 -111 -250 -110 q-90 0 -172 62.5t-82 150.5zM-584 -324q0 -51 52 -51q33 0 74.5 32t87.5 88q46 55 81 105l76 111q41 61 51 74q-51 -23 -113.5 -56.5t-136 -83t-123 -108t-49.5 -111.5zM621 1202q0 51 48 89t136 38q94 0 141 -33.5t47 -85.5q0 -55 -51 -99t-129 -44q-90 0 -141 41t-51 94z " />
<glyph unicode="k" horiz-adv-x="856" d="M-154 47q0 14 17 41q817 1155 889 1296q4 4 10 5q39 0 104.5 -50.5t65.5 -103.5q0 -18 -12 -35l-211 -291q59 25 112 25q92 0 127 -100q4 -10 22.5 -40t18.5 -67q0 -117 -152.5 -243t-310.5 -148q0 -225 103 -225q27 0 69.5 26.5t76.5 56.5l68 61q34 32 36 34q8 8 16 8 q20 0 20 -49q0 -8 -14 -37q-53 -102 -152.5 -182t-189.5 -80q-39 0 -71.5 12t-55 28.5t-43 47.5t-32 55.5t-23.5 64.5t-18.5 65.5t-14.5 67.5t-12 60q-166 -217 -236 -362q-20 -39 -55 -39q-33 0 -92.5 33.5t-59.5 64.5zM387 473q88 2 182.5 44t161 96.5t109.5 109.5t43 88 q0 31 -35 31q-162 -4 -461 -369z" />
<glyph unicode="l" horiz-adv-x="634" d="M-10 170q0 139 98 332.5t231.5 358.5t255 291t183.5 161q23 14 49 14q47 0 137 -82l34 -26q24 -18 35 -28.5t21 -29t10 -39.5q0 -16 -6 -37q-35 -115 -122 -221t-195.5 -184t-210.5 -133t-197 -90q-115 -205 -114 -314q0 -66 71.5 -65.5t183 68t226.5 200.5q18 20 33 21 q35 0 35 -54q0 -37 -23 -61q-131 -158 -259 -232.5t-220 -74.5q-70 0 -109 39q-8 8 -56 48t-69.5 70.5t-21.5 67.5zM434 647q143 51 294 212t151 212q0 8 -7 8h-2q-63 -8 -188 -133t-248 -299z" />
<glyph unicode="m" horiz-adv-x="1384" d="M-113 94q0 23 11 35q432 657 481 743q22 37 55 38q3 0 6 -1q41 -2 99.5 -38.5t60.5 -75.5q0 -12 -6 -25q-10 -20 -141 -194.5t-189 -241.5q78 72 284 280.5t236 245.5q23 23 41 23q35 0 113 -64.5t80 -99.5q0 -8 -4 -25q-4 -8 -66 -83l-142 -175l-118 -149l415 386 q247 224 273 230h6q18 0 38 -13t41.5 -36t35.5 -33q23 -10 23 -57q4 -29 -9 -41q-139 -143 -277 -334q-136 -188 -136 -262q0 -49 47 -49q41 2 106.5 50t137 114.5t92.5 81.5q16 10 30 14q14 0 17 -21q0 -39 -21 -65q-211 -270 -397 -279h-7q-81 0 -129 48q-54 54 -55 147 q0 59 51 168q52 113 126 217q-66 -53 -196 -199l-232 -259q-102 -114 -123 -113q-2 0 -5 -1q-50 0 -96 40q-47 42 -49 83q0 39 334 543q-111 -72 -271 -245l-276 -307q-115 -134 -135 -134h-5q-51 0 -100 42q-53 44 -55 91z" />
<glyph unicode="n" horiz-adv-x="847" d="M-100 82q0 10 4 18q20 55 194 365.5t207 363.5q27 43 62 43q31 0 96 -44t65 -70q0 -14 -8 -29q-166 -279 -311 -489l189 206l244 268q103 114 120 134q23 23 47 22q33 0 98.5 -53t65.5 -84q0 -20 -25 -51q-319 -397 -319 -526q0 -20 13 -36t32 -14q49 0 151.5 98.5 t149.5 164.5q8 10 20 10q16 0 17 -25q0 -12 -4 -20q-59 -131 -183.5 -239.5t-251.5 -108.5h-5q-62 0 -97 48q-37 50 -37 134q0 61 53.5 171t114.5 185q-80 -55 -209 -198l-225 -256q-96 -113 -113 -113q-51 0 -103 41t-52 84z" />
<glyph unicode="o" horiz-adv-x="768" d="M0 250q0 186 182.5 401t309.5 267q23 10 49 10q16 0 32.5 -5t27.5 -10.5t26.5 -15.5t21.5 -15t19 -18l12 -12q14 -14 47 -34.5t51.5 -36t34.5 -52.5t16 -90v-16q-4 -111 -94 -268.5t-218 -276.5t-224 -119q-94 0 -180 96l-22 21q-17 16 -29.5 31.5t-29 38t-24.5 49 t-8 55.5zM186 158q0 -68 80 -68q49 0 155.5 114.5t196 257t89.5 208.5q0 43 -39 43q-63 0 -180 -104.5t-209.5 -238.5t-92.5 -212z" />
<glyph unicode="p" horiz-adv-x="872" d="M-410 -410q0 53 19 82l387 598q379 586 395 617q27 53 60 53q23 0 59 -27q14 -10 36.5 -18t33 -15.5t10.5 -23.5t-23 -76q115 84 189 84q35 0 55 -14t39.5 -47t28.5 -41q4 -4 18 -20.5l22.5 -26.5t16.5 -37t8 -63q0 -76 -86 -215q-88 -142 -225 -262t-252 -120 q-66 0 -127 58q-53 49 -86 106q-158 -221 -270.5 -416.5t-149.5 -266t-55 -70.5q-103 -1 -103 161zM291 266q0 -55 76 -55q84 0 242.5 198.5t158.5 295.5q0 41 -39 40q-41 0 -147.5 -90t-198.5 -208t-92 -181z" />
<glyph unicode="q" horiz-adv-x="817" d="M-41 -496q0 8 4 25q14 33 119.5 209t169.5 272q-10 -2 -31 -2q-94 0 -165 71q-73 73 -72 172q0 86 97 249q99 166 236.5 301t223.5 135q45 0 78.5 -22.5t51 -52.5t41 -61.5t48.5 -41.5l45 64l41 59q25 33 55 32q41 0 92 -25.5t51 -62.5q0 -29 -30 -65 q-98 -125 -425 -604.5t-427 -694.5q-41 -84 -80 -84q-18 0 -72 39q-51 39 -51 88zM139 164q0 -53 58 -53q55 0 169.5 116.5t208 260t93.5 212.5q0 43 -43 43q-55 0 -174 -112.5t-215.5 -253.5t-96.5 -213z" />
<glyph unicode="r" horiz-adv-x="776" d="M-123 74q0 29 23 53q47 57 208.5 302t170.5 267q0 2 1 6.5t1 6.5q0 8 -3.5 30.5t-3.5 36.5q0 43 21 74q33 51 48 71.5t51 62.5t73 59.5t78 17.5q37 0 37 -31q0 -45 -50 -125h17q39 0 93 7.5t107.5 16.5t55.5 9q4 2 12 2q37 0 70 -61.5t33 -102.5q0 -39 -27 -63 q-115 -96 -269.5 -302t-154.5 -288q0 -37 41 -37q74 0 209 115.5t184 175.5q6 6 12 6q14 0 15 -27q0 -29 -21 -63q-55 -106 -198.5 -225t-235.5 -119q-70 0 -137.5 63.5t-67.5 151.5q0 66 28 137.5t90.5 154.5t93.5 119l104 117q-145 0 -168 4q-6 0 -89 -130l-192 -295 q-109 -165 -160 -224q-16 -23 -47 -22q-20 0 -36.5 14.5t-16.5 34.5z" />
<glyph unicode="s" horiz-adv-x="628" d="M-215 45q0 29 35 55q94 70 298 330t357 553q29 55 64 55q41 0 101 -40t60 -74q0 -25 -30 -47q-12 -8 -40 -113t-53.5 -288t-27.5 -353q-2 -70 -46 -121t-108 -51q-72 0 -145.5 73.5t-132.5 229.5q-158 -184 -267 -234q-14 -8 -30 -8q-35 0 -35 33zM172 322 q20 -43 65.5 -98.5t75.5 -55.5q47 0 47 178q0 154 35 264q-94 -130 -223 -288z" />
<glyph unicode="t" horiz-adv-x="540" d="M0 184q0 37 14 86q61 180 279 508q-10 0 -25.5 -1t-21.5 -1q-2 0 -6 2h-4q-39 0 -73 38t-34 71q0 29 33 28q35 0 104.5 -2t104.5 -2h10l114 165l102 147q38 55 50 77q12 20 37 21q35 0 109.5 -52t74.5 -85q0 -25 -32 -56q-43 -37 -183 -215q51 0 104.5 2.5t85 3.5t38.5 1 q23 2 36 -24t13 -52q0 -39 -25 -39h-6q-57 14 -145 14q-80 0 -183 -10q-395 -526 -395 -696q0 -61 57 -62q61 0 176 92.5t201 184.5q25 25 35 24q14 0 14 -26q0 -70 -45 -119q-231 -256 -372 -256q-84 0 -170 84q-72 69 -72 149z" />
<glyph unicode="u" horiz-adv-x="942" d="M0 225q0 37 8 64q6 23 18.5 49.5t34.5 60.5l40 64q17 29 52 74t52.5 69.5t57.5 73.5l52 64l54 66q41 50 43 52q29 37 65 37q41 0 104.5 -41t63.5 -78q0 -27 -24 -49q-160 -152 -278 -311.5t-148 -251.5q-8 -18 -9 -39q0 -25 25 -25t49 25q119 115 345 405.5t265 356.5 q10 18 35 18q47 0 103.5 -46t56.5 -91q0 -23 -21 -43q-82 -78 -241.5 -305t-159.5 -307q0 -33 31 -33q45 0 138 78t152.5 140.5t96.5 105.5q18 20 39 20q27 0 26 -29q0 -12 -8 -28q-72 -125 -223.5 -274.5t-257.5 -151.5h-6q-94 0 -132 67q-40 70 -40 170v15l-37 -45 q-39 -43 -58.5 -62.5t-55.5 -52.5t-65.5 -48.5t-54.5 -15.5h-3q-75 0 -130 78q-55 80 -55 174z" />
<glyph unicode="v" horiz-adv-x="763" d="M-10 221q0 106 170 369.5t225 306.5q23 20 45 21q33 0 96.5 -55.5t63.5 -90.5q0 -29 -31 -53q-55 -45 -217 -270.5t-168 -296.5v-21q0 -63 43 -63q63 0 303 317t322 459q37 63 82 63q23 0 39 -17.5t16 -39.5q0 -8 -4 -21q-31 -82 -261.5 -422.5t-369.5 -422.5 q-70 -41 -127 -41q-55 0 -92 29.5t-51 64.5q-8 14 -25.5 40.5t-19.5 28.5q-39 62 -39 115z" />
<glyph unicode="w" horiz-adv-x="1202" d="M0 229q0 37 8 76q20 106 187 347t225 268q29 14 49 14t59 -31q10 -8 33 -20.5t33 -20.5q29 -20 29 -43q0 -20 -19 -35q-115 -113 -258 -330.5t-166 -273.5q-8 -25 -8 -37q0 -25 31 -24h18q49 8 219 226t234 323q33 55 63 55q35 0 97.5 -39t62.5 -72q0 -10 -8 -34 q-6 -16 -33 -56q-8 -14 -29.5 -47t-25.5 -41q-78 -121 -105 -174q-31 -66 -30 -106q0 -47 34 -48q12 0 37 11q72 31 261.5 299t267.5 415q20 37 32 54q18 25 37 24q41 0 41 -78q0 -14 -2 -24q-10 -129 -190 -389t-322 -385q-76 -63 -133 -64q-23 0 -45 9.5t-31.5 15.5 t-37 29.5t-29.5 25.5q-74 55 -76 195q-197 -258 -293 -258q-53 0 -125 67q-43 35 -61 64q-31 44 -31 112z" />
<glyph unicode="x" horiz-adv-x="960" d="M-102 2q0 53 36 92q90 102 498 373q18 213 19 244q0 59 -27 59q-14 0 -35.5 -10t-40 -24.5t-43 -36l-39.5 -35.5l-34 -35l-23 -25q-29 -29 -51 -29q-18 0 -30.5 14.5t-12.5 33.5q0 12 6 24q61 86 165.5 176t205.5 90q184 0 192 -276q383 254 391 260q14 10 23 10 q16 0 52 -53t36 -76q0 -14 -13 -20q-174 -72 -493 -291q-10 -201 -10 -227q0 -162 67 -162q59 0 164 99t164 177q12 16 29 17q25 0 24 -29q0 -18 -10 -39q-43 -82 -164 -206q-119 -122 -220 -122h-3q-272 0 -295 310q-227 -174 -391 -332q-53 -51 -86 -51q-39 0 -47 59 q-4 29 -4 41z" />
<glyph unicode="y" horiz-adv-x="894" d="M-348 -195q0 35 55 35q31 0 51.5 -11t28.5 -23.5t27 -47.5q53 -98 153 -98q104 0 237.5 163t192.5 294q-145 -117 -235 -117h-6q-57 0 -115.5 77t-58.5 138q0 51 23.5 115.5t50 114t83.5 125.5l84 111q27 34 93.5 111.5l74.5 86.5q33 41 58 41q8 0 20 -4.5t32.5 -13.5 t39.5 -15q78 -25 77 -78q0 -23 -20 -37q-37 -25 -193.5 -226.5t-216.5 -314.5q-37 -72 -36.5 -110.5t38.5 -38.5q47 0 119 49q76 51 313.5 364.5t254.5 362.5q8 25 34 25q37 0 108 -44t71 -75q0 -16 -17 -37q-182 -219 -346 -468t-241.5 -382t-178 -224t-215.5 -91 q-117 0 -223.5 46t-167.5 113q-49 51 -49 84z" />
<glyph unicode="z" horiz-adv-x="806" d="M-410 -313q0 98 98.5 185t223.5 133t223 46q129 0 160 -37q4 -8 4 -10q0 -18 -129 -27q-135 -8 -312 -92t-177 -137q0 -39 104 -39q96 0 286.5 98.5t350.5 232.5t162 222q0 55 -95 55q-133 0 -288 -67q-35 -14 -60 -14q-35 0 -67.5 44t-32.5 80q0 57 55 78q4 2 131 61 l262 121l203 91q-227 -14 -381 -37h-14q-43 0 -65.5 31.5t-22.5 70.5q0 58 25 58h4h32q78 0 349.5 13t283.5 13q68 0 68 -80q0 -18 -2 -26q-12 -84 -23 -92q-14 -12 -111 -55l-224 -95q-126 -53 -181 -80q45 4 74 4q131 0 162 -82q6 -16 41.5 -95t35.5 -120q0 -20 -6 -43 q-18 -49 -103 -139t-211 -186.5t-300 -167t-338 -70.5q-90 0 -142.5 43t-52.5 111z" />
<glyph unicode="{" horiz-adv-x="890" d="M41 150q0 37 16 81q14 35 242 385q2 2 2 9q0 14 -42 80.5t-42 97.5q0 33 77 72.5t168 80.5t113 74q109 162 168 242q-12 39 -12 74q0 41 17 49q35 14 221 42.5t254 30.5h32q61 0 99.5 -12t99.5 -55q31 -25 31 -60q0 -27 -23 -32q-61 -18 -379 -84q-53 -61 -188 -236 q-35 -47 -130 -91t-170 -74.5t-75 -53t47 -78t47 -76.5q0 -4 -4 -12q-170 -238 -262 -393q266 72 318 72q59 0 117.5 -31t58.5 -86q0 -6 -2 -8q-2 -16 -70 -41t-220.5 -74t-281.5 -100q-4 -2 -18 -2q-53 0 -133 57q-76 56 -76 152z" />
<glyph unicode="|" horiz-adv-x="550" d="M-82 143q0 45 31 88l377 543q360 520 489 682q23 31 49 31q43 0 110.5 -53.5t67.5 -96.5q0 -41 -45 -88q-176 -184 -436 -574t-414 -650q-43 -74 -88 -74q-49 0 -95 70.5t-46 121.5z" />
<glyph unicode="}" horiz-adv-x="933" d="M-184 160q0 33 14 39q33 14 222.5 28.5t277.5 14.5q41 0 57 -4q2 100 137 337q16 31 168 106t152 112q0 23 -56.5 65.5t-56.5 63.5q0 2 4 14l174 285l-223 -48h-8q-41 0 -77 67t-36 120q0 29 15 35q47 20 235.5 46.5t263.5 26.5q39 0 93.5 -13t102.5 -45t48 -73 q0 -27 -20 -28q-14 -6 -41 -13q8 -20 8 -30q0 -31 -39 -80q-27 -31 -182 -260q-8 -10 -9 -25q0 -25 43 -74t43 -75q0 -47 -154.5 -125t-174.5 -115q-127 -223 -189 -363q-31 -61 -76 -73q-102 -27 -598 -129h-6q-41 0 -76.5 77t-35.5 136z" />
<glyph unicode="~" horiz-adv-x="811" d="M82 565q0 66 15.5 96.5t76.5 65.5q84 49 176 49q70 0 191 -43t180 -43q84 0 158 55q12 4 16 5q16 0 27.5 -25t11.5 -59q0 -84 -55 -121q-119 -78 -224 -78q-74 0 -190.5 51t-173.5 51q-63 0 -133 -43q-25 -16 -45 -16q-31 0 -31 55z" />
<glyph unicode="&#xa1;" horiz-adv-x="657" d="M20 12q0 25 31 62q66 82 584 874q27 43 72 43q84 0 84 -139q0 -31 -9 -47q-10 -23 -260 -406t-260 -405q-29 -61 -74 -62q-14 0 -73 23q-4 2 -24.5 7t-33 9t-25 15.5t-12.5 25.5zM778 1130q0 45 57.5 113t102.5 68q37 0 62.5 -28t25.5 -64q0 -55 -47 -124t-102 -69 q-43 0 -71 34.5t-28 69.5z" />
<glyph unicode="&#xa2;" horiz-adv-x="778" d="M0 -2q0 35 25 70q23 31 239 356l-27 47q-19 33 -26.5 48.5t-16 46t-8.5 65.5q0 16 2 26q6 113 208 319t313 206q27 0 53 -23q147 213 217 299q27 29 47 29q37 0 89 -50.5t52 -86.5q0 -45 -49 -95q-88 -94 -246 -294q6 -23 7 -46q0 -45 -71 -132t-122 -87q-18 0 -38.5 30 t-20.5 58q0 39 49 123q-88 -49 -210 -183t-122 -212q0 -29 31 -56.5t76 -27.5q80 0 151.5 34t113.5 75l88 83q46 42 75 54q2 0 6 2h2q23 0 22 -60v-6q0 -25 -62.5 -98.5t-170 -146t-203.5 -72.5q-49 0 -84 14q-209 -293 -262 -377q-31 -49 -57.5 -49t-48 44t-21.5 73z" />
<glyph unicode="&#xa3;" horiz-adv-x="811" d="M20 266q0 43 49.5 95.5t163 137.5t127.5 97q-78 0 -114 4q-51 8 -51 64q0 31 5 48t19 25t28.5 10.5t45.5 2.5h158q0 33 -11.5 96t-11.5 96q0 88 39 144.5t82 74.5l79.5 38t115 48.5t85.5 16.5q61 0 105.5 -28t65 -74t28.5 -91t8 -94q0 -43 -4 -80q-10 -66 -96 -66 q-37 0 -37 54q0 80 -45 168t-117 88q-31 0 -53 -33t-31.5 -86t-13.5 -103.5t-6 -104.5t-4 -69h55l29 -2q27 0 62.5 -33.5t35.5 -62.5q0 -33 -57 -41q-68 -10 -191 -10q-74 -90 -225 -246q90 8 166 8q33 0 68.5 -3t86 -11t83 -28.5t32.5 -51.5q0 -33 -53 -33h-2h-86 q-252 0 -475 -73q-31 -10 -47 -11q-10 0 -20.5 3.5t-16.5 6.5t-13 11l-10 13q-4 5 -9 16.5t-6 15.5t-6 18.5t-5 16.5q-5 6 -5 18z" />
<glyph unicode="&#xa5;" horiz-adv-x="907" d="M0 354q0 37 27.5 60.5t66.5 27.5h56h124l52 47q-86 0 -136 5q-55 2 -55 38.5t27.5 59t66.5 27.5q6 2 56 2q68 0 112 -2q0 96 4 299q5 202 5 215q0 27 20 45t55 18q2 0 8.5 -1t10.5 -1q41 -6 65.5 -33.5t24.5 -68.5v-19q-25 -180 -25 -293q0 -27 4 -67q418 383 549 438 q30 12 56 12q29 0 55 -17.5t26 -43.5q0 -20 -24 -43q-211 -168 -518 -443q47 -2 90 -2q25 0 46 -18t21 -39q0 -51 -104 -59q-49 -4 -191 -9q-10 -8 -26.5 -25.5t-26.5 -25.5h146q27 0 48 -18.5t21 -40.5q0 -49 -106 -59q-115 -8 -238 -9q-72 -72 -133 -139q-14 -18 -33 -18 q-31 0 -70.5 44t-39.5 74q0 23 20 39q-14 0 -32.5 1t-30 2t-19.5 1q-55 6 -55 39z" />
<glyph unicode="&#xa6;" horiz-adv-x="530" d="M-102 141q0 45 30 88q6 8 106.5 155.5t176.5 248.5q2 2 12 17.5t14.5 20.5l14.5 16t17 15.5t18.5 9.5t23.5 5q25 0 73 -37t52 -39q39 -16 39 -49q0 -18 -12 -35q-217 -332 -336 -534q-45 -74 -88 -74q-49 0 -95 70.5t-46 121.5zM428 922q0 27 23 57q240 344 344 477 q23 29 49 29q43 0 110.5 -53.5t67.5 -94.5q0 -43 -45 -88q-94 -102 -309 -395q-41 -53 -80 -53q-23 0 -64 31.5t-59 37.5q-37 11 -37 52z" />
<glyph unicode="&#xa7;" horiz-adv-x="983" d="M-41 106q0 76 60.5 172.5t127.5 96.5q43 0 80 -43t37 -86q0 -59 -55 -115q-41 -45 -41 -72q0 -25 33 -24q78 0 204.5 125t126.5 198q0 41 -49 87.5t-108.5 82t-108.5 87t-49 100.5q0 72 80 131t168 85.5t160 33.5q-86 80 -86 186q0 150 176 308.5t334 199.5q41 8 59 8 q80 0 147 -74q16 -18 60.5 -45.5t71 -58.5t26.5 -78q0 -76 -60.5 -172t-127.5 -96q-43 0 -80 43t-37 86q0 59 55 114q41 45 41 70q0 27 -33 27q-25 0 -55 -15q-70 -31 -173 -137t-103 -172q0 -41 49 -87t108.5 -83t108.5 -88t49 -98q0 -74 -80 -132.5t-168 -85t-159 -32.5 q86 -78 86 -188q0 -100 -99.5 -223.5t-234.5 -207.5t-236 -84q-80 0 -147 72q-16 20 -60.5 48t-71 58.5t-26.5 77.5zM516 739q0 -92 137 -92q66 0 135.5 37t69.5 94q0 92 -139 92q-66 0 -134.5 -37t-68.5 -94z" />
<glyph unicode="&#xa8;" horiz-adv-x="1191" d="M651 1100q0 41 38 69.5t114 28.5q74 0 112.5 -29.5t38.5 -72.5q0 -45 -40 -81t-105 -36q-70 0 -114 37t-44 84zM1057 1102q0 41 38 68.5t113.5 27.5t113.5 -29.5t38 -72.5q0 -45 -41 -81t-105 -36q-70 0 -113.5 38t-43.5 85z" />
<glyph unicode="&#xa9;" horiz-adv-x="1067" d="M246 784q0 145 87 300t227 257.5t278 102.5q86 0 141 -33t119 -104q8 -8 48 -51.5t55.5 -65t32.5 -72.5t17 -114q0 -27 -2 -41q-14 -211 -189 -392.5t-386 -181.5q-111 0 -187 53l-55 37l-54 36q-19 13 -43 35.5t-40 47.5q-49 82 -49 186zM393 741q0 -106 65.5 -182 t172.5 -76q166 0 329.5 198t163.5 368q0 102 -69.5 183t-169.5 81q-166 0 -329 -187.5t-163 -384.5zM479 745q0 96 78 217t173 202t151 81q14 0 20 -4q23 -12 47.5 -42t26.5 -32q45 -41 45 -86v-12q-4 -23 -39 -77t-63 -70q-14 -8 -29 -9q-23 0 -39 22.5t-16 47.5 q0 29 40 69t44 46q6 8 6 16t-9 8q-76 0 -184 -138t-131 -216q-10 -35 -10 -63q0 -74 55 -74q14 0 23 2q49 14 145 112.5t127 139.5q6 6 10 6q16 0 17 -31q0 -16 -13 -51q-31 -78 -108.5 -160t-171.5 -82q-53 0 -114.5 40t-74.5 89q-6 24 -6 49z" />
<glyph unicode="&#xaa;" horiz-adv-x="913" d="M205 557q0 178 181 392t300 265q25 10 47 11q51 0 101.5 -44t68.5 -98l27 40q14 22 16 26q16 23 49 22q43 0 88 -44t45 -89q0 -23 -18 -45q-41 -39 -186.5 -268t-145.5 -258q0 -45 31 -45q84 0 319 285q12 16 29 16q23 0 23 -33q0 -41 -43 -98q-90 -125 -189.5 -203 t-167.5 -78q-137 0 -178 181q-152 -137 -221 -138q-66 0 -98 74q-12 27 -45 60.5t-33 68.5zM389 528q0 -23 16 -22q35 0 111 74q143 141 334 424q-14 27 -39 26q-76 0 -270 -235q-152 -187 -152 -267z" />
<glyph unicode="&#xab;" horiz-adv-x="897" d="M41 348q0 43 22.5 137.5t45.5 104.5q12 16 20 22q23 23 414 318q10 6 14 6q33 0 33 -66q0 -92 -82 -174q-102 -102 -291 -243l56 -85l54 -83l23 -37q8 -14 8 -74q0 -76 -15 -144.5t-44 -68.5q-6 0 -18 8q-45 35 -125 149.5t-105 170.5q-10 20 -10 59zM451 348 q0 43 22.5 137.5t44.5 104.5q12 16 21 22q23 23 413 318q10 6 15 6q33 0 32 -66q0 -92 -81 -174q-102 -102 -291 -243l56 -85l53 -83l24 -37q8 -14 8 -74q0 -76 -15.5 -144.5t-43.5 -68.5q-6 0 -19 8q-45 35 -125 149.5t-104 170.5q-10 20 -10 59z" />
<glyph unicode="&#xad;" horiz-adv-x="782" d="M143 621q0 76 26 97t97 21q78 0 282 -4t210 -4q35 0 81 -46t46 -87q0 -47 -72 -57q-100 -16 -340 -17q-184 0 -262 8q-68 11 -68 89z" />
<glyph unicode="&#xae;" horiz-adv-x="1067" d="M246 784q0 145 87 300t227 257.5t278 102.5q86 0 141 -33t119 -104q8 -8 48 -51.5t55.5 -65t32.5 -72.5t17 -114q0 -223 -177 -419t-400 -196q-111 0 -187 53l-55 37l-54 36q-19 13 -43 35.5t-40 47.5q-49 82 -49 186zM393 741q0 -106 65.5 -182t172.5 -76q100 0 213 90 q-68 14 -144.5 71.5t-105.5 166.5q-20 -31 -84 -147q-10 -16 -27 -17q-20 0 -40.5 29t-20.5 49q0 16 14 39q20 35 93 141l141 203q68 96 69 100q4 8 17 9q29 0 54.5 -32t29.5 -63q98 63 153 64q25 0 37 -9.5t27 -41.5l16 -31q10 -16 10 -39q0 -94 -114.5 -173t-214.5 -79 h-17q2 -41 20.5 -72.5t35 -46t56.5 -39t52 -34.5q223 211 223 428q0 102 -69.5 183t-169.5 81q-164 0 -328 -187.5t-164 -384.5zM694 907q0 -16 25 -16q53 0 160.5 79t107.5 126q0 23 -20 22q-68 -4 -152 -69.5t-119 -130.5q-2 -5 -2 -11z" />
<glyph unicode="&#xaf;" horiz-adv-x="1191" d="M696 1055q0 72 27 96.5t96 24.5q53 0 193.5 -4.5t154.5 -4.5q39 0 93.5 -46t54.5 -87q0 -49 -84 -59q-123 -14 -266 -14q-100 0 -191 8q-78 8 -78 86z" />
<glyph unicode="&#xb0;" horiz-adv-x="600" d="M369 971q0 90 113.5 239.5t197.5 149.5q33 0 82 -43q6 -6 34.5 -23.5t40 -39t11.5 -60.5v-10q-4 -100 -115.5 -241.5t-195.5 -141.5q-51 0 -109.5 59.5t-58.5 110.5zM502 940q0 -33 36.5 -33t125 115t88.5 164q0 20 -21 20q-49 0 -139 -104.5t-90 -161.5z" />
<glyph unicode="&#xb2;" horiz-adv-x="622" d="M143 594q0 80 109 178q39 33 270.5 190.5t245.5 176.5q18 25 18 47q0 41 -47 41q-14 0 -32 -6q-70 -16 -111 -49t-68.5 -75t-42.5 -55q-49 -43 -98 -43q-31 0 -49.5 20.5t-18.5 51.5q0 39 33 68q209 190 350 190q43 0 78 -24q10 -6 19.5 -18.5t27 -40t35.5 -52.5 q27 -31 27 -80q0 -55 -41 -106q-35 -45 -272.5 -190.5t-282.5 -196.5q6 0 95 10t147 10q193 0 192 -84q0 -25 -37 -25q-279 0 -446 -79q-12 -6 -25 -7q-29 0 -52.5 55.5t-23.5 92.5z" />
<glyph unicode="&#xb3;" horiz-adv-x="724" d="M143 707q0 29 16.5 44t41.5 15q37 0 55 -27q4 -6 25.5 -40.5t38 -51t64.5 -34t116 -17.5q59 0 106 18.5t74 45t40 50t13 38.5q0 35 -51 72.5t-141 37.5q-35 0 -78 -6q-2 -2 -8 -2q-27 0 -27 41q0 6 6 55q0 4 3 15.5t4 14.5l4 12q3 9 6 12l6 10q4 6 8 8t10 4t14.5 2 t14.5 -2q37 -4 71 -4q33 0 82.5 7t107.5 21.5t99 43t41 65.5q0 23 -27.5 40t-74.5 17q-82 0 -209 -55q-6 -4 -16 -4q-29 0 -52 51q-8 33 -8 39q0 16 8 25q12 10 126 33.5t177 23.5q27 0 39 -6q35 -14 54.5 -40t36 -75t24.5 -63q8 -25 8 -45q0 -55 -58.5 -109.5t-193.5 -87.5 q88 -66 88 -194q0 -23 -2 -33q-10 -102 -103 -159.5t-212 -57.5h-6q-115 2 -220.5 66.5t-131.5 146.5q-9 19 -9 39z" />
<glyph unicode="&#xb4;" horiz-adv-x="1191" d="M797 952q0 16 14 39q193 272 244 336q18 20 35 21q29 0 76.5 -38t47.5 -67q0 -27 -30 -61q-66 -68 -219 -277q-27 -39 -56 -39q-4 0 -8 2q-12 2 -39.5 22.5t-38.5 24.5q-26 6 -26 37z" />
<glyph unicode="&#xb6;" horiz-adv-x="1366" d="M143 88q0 33 21 59l364 478q-279 80 -278 280q0 49 11 78t31.5 59.5t31.5 59.5q43 121 107.5 157.5t295.5 86.5q180 35 389 40q53 74 92 74q29 0 74 -24.5t64 -49.5q135 -8 198 -14q55 74 101 74q49 0 100 -34t51 -83q0 -37 -31 -76v-16q0 -160 -106 -160q-25 0 -51 13 q-78 -88 -195 -240q61 -25 62 -141q0 -86 -58 -99q-82 -14 -207 -24l-411 -574q-27 -41 -58 -41q-39 0 -93 37t-54 76q0 35 22 72q59 96 308 419q-94 4 -146 9q-313 -414 -418 -566q-37 -53 -88 -53q-49 0 -89 37t-40 86zM379 940q0 -74 303 -115l250 324q-82 -4 -125 -8 q-53 -6 -145.5 -30t-187.5 -72t-95 -99zM950 807h54q68 0 98 2l258 330q-82 8 -141 10z" />
<glyph unicode="&#xb7;" horiz-adv-x="307" d="M123 516q0 55 47 124t102 69q43 0 71 -35t28 -68q0 -47 -57.5 -114.5t-102.5 -67.5q-37 0 -62.5 27.5t-25.5 64.5z" />
<glyph unicode="&#xb8;" horiz-adv-x="1191" d="M82 -115q0 25 20.5 40.5t53.5 15.5q45 0 70.5 -25t36.5 -54.5t20 -33.5q53 -25 129 -25q47 0 90 18.5t43 59.5q0 27 -38 46.5t-97.5 37t-65.5 19.5q-33 14 -33 92q0 41 33 106.5t70 65.5q27 0 81 -21.5t54 -42.5q0 -12 -11.5 -29.5t-31 -42t-21.5 -26.5q51 -16 77 -27.5 t65 -35t56 -56.5t17 -78q0 -98 -77.5 -145t-186.5 -47q-158 0 -266 74q-88 59 -88 114z" />
<glyph unicode="&#xb9;" horiz-adv-x="350" d="M143 584q0 25 11 45q27 59 130 220t167 251q-57 -25 -109 -64q-14 -10 -25 -10q-18 0 -18 23q0 8 6 20q10 18 152.5 148.5t156.5 134.5q4 2 13 2q10 0 18 -8.5t19.5 -22.5t19.5 -20q35 -35 35 -64q0 -18 -12 -33q-57 -63 -189.5 -272t-234.5 -436q-18 -41 -43 -41 q-23 0 -58 47q-39 43 -39 80z" />
<glyph unicode="&#xba;" horiz-adv-x="786" d="M205 616q0 174 168 372t284 243q20 10 48 10q20 0 42.5 -9t34 -17.5t29.5 -26t20 -17.5q10 -8 56.5 -36.5t65 -62.5t18.5 -97v-17q-4 -102 -88 -247.5t-202 -254t-206 -108.5t-166 88q-2 4 -19.5 19.5t-28.5 29t-25.5 35t-22.5 45.5t-8 51zM377 532q0 -63 74 -63 q45 0 143 106.5t180 236.5t82 192q0 39 -37 38q-57 0 -164.5 -96t-192.5 -220t-85 -194z" />
<glyph unicode="&#xbb;" horiz-adv-x="1038" d="M41 -4q0 53 20.5 110.5t53.5 88.5q20 18 321 229q-115 137 -155 219q-10 18 -11 57q0 41 23.5 132.5t50.5 91.5q4 0 10 -6q8 -4 60 -76l106 -152l60 -86q8 -10 8 -65q0 -178 -92 -267q-76 -70 -222.5 -176t-195.5 -133q-6 -4 -17 -4q-20 0 -20 37zM451 -4 q0 53 20.5 110.5t52.5 88.5q20 18 322 229q-115 137 -156 219q-10 18 -10 57q0 41 23.5 132.5t50.5 91.5q4 0 10 -6q8 -4 59 -76l107 -152l59 -86q8 -10 8 -65q0 -178 -92 -267q-76 -70 -222 -176t-196 -133q-6 -4 -16 -4q-20 0 -20 37z" />
<glyph unicode="&#xbc;" horiz-adv-x="1286" d="M61 4v19q0 106 84 190l459 465l615 612q29 29 45 29q20 0 39.5 -36t19.5 -58q0 -57 -80 -125q-201 -172 -531 -513l-532 -564q-61 -68 -90 -68q-25 0 -29 49zM195 584q0 18 10 45q66 137 297 471q-53 -23 -107 -64q-16 -10 -24 -10q-20 0 -21 23q0 8 6 20 q10 18 153.5 148.5t158.5 134.5q4 2 10 2q10 0 19.5 -8.5t19.5 -22.5t18 -20q35 -31 35 -64q0 -18 -12 -33q-57 -68 -188.5 -275.5t-235.5 -432.5q-18 -41 -43 -41q-12 0 -23.5 9t-21.5 23l-13 15q-38 43 -38 80zM586 233q0 20 16 48q10 16 269 266t268 262q12 18 37 18 q8 0 38.5 -5t57.5 -7q47 -2 71.5 -23.5t24.5 -48.5q0 -25 -14 -38q-94 -98 -242 -404q61 4 82 4q41 0 80 -16.5t39 -50.5q0 -29 -35 -29q-8 0 -12 2h-13q-43 0 -192 -23q-68 -147 -74 -192q-2 -29 -49 -29q-39 0 -75 19.5t-36 46.5q0 4 2 8q2 6 60 119q-162 -29 -180 -33 q-12 -2 -29 -2q-31 0 -62.5 37.5t-31.5 70.5zM743 254l103 14q74 10 106 15q113 217 150 315q-76 -53 -193 -168t-166 -176z" />
<glyph unicode="&#xbd;" horiz-adv-x="1361" d="M61 4v19q0 106 84 190l459 465l615 612q29 29 45 29q20 0 39.5 -36t19.5 -58q0 -57 -80 -125q-201 -172 -531 -513l-532 -564q-61 -68 -90 -68q-25 0 -29 49zM195 584q0 18 10 45q66 137 297 471q-53 -23 -107 -64q-16 -10 -24 -10q-20 0 -21 23q0 8 6 20 q10 18 153.5 148.5t158.5 134.5q4 2 10 2q10 0 19.5 -8.5t19.5 -22.5t18 -20q35 -31 35 -64q0 -18 -12 -33q-57 -68 -188.5 -275.5t-235.5 -432.5q-18 -41 -43 -41q-12 0 -23.5 9t-21.5 23l-13 15q-38 43 -38 80zM678 104q0 86 108 179q35 29 160 114l235 162q110 76 122 92 q18 27 18 47q0 39 -47 39q-8 0 -33 -4q-70 -16 -110.5 -50t-68.5 -76t-42 -54q-55 -43 -100 -43q-29 0 -48.5 21.5t-19.5 50.5q0 39 35 69q209 188 350 189q33 0 58.5 -13.5t36.5 -27t32.5 -46t32.5 -46.5q27 -35 26 -82q0 -55 -41 -107q-35 -43 -272.5 -189.5 t-282.5 -197.5q6 0 95.5 10.5t146.5 10.5q190 0 191 -84q0 -25 -35 -25q-279 0 -447 -78q-14 -8 -24 -8q-29 0 -52.5 55t-23.5 92z" />
<glyph unicode="&#xbe;" horiz-adv-x="1656" d="M143 707q0 29 16.5 44t41.5 15q37 0 55 -27q4 -6 25.5 -40.5t38 -51t64.5 -34t116 -17.5q59 0 106 18.5t74 45t40 50t13 38.5q0 35 -51 72.5t-141 37.5q-14 0 -43 -4t-43 -4q-27 0 -27 41q0 6 6 55q0 4 3 15.5t4 14.5l4 12q3 9 6 12l6 10q4 6 8 8t10 4t14 2q14 0 43 -3 t43 -3q33 0 82.5 7t107.5 21.5t99 43t41 65.5q0 23 -27.5 40t-74.5 17q-82 0 -209 -55q-6 -4 -16 -4q-25 0 -42.5 32t-17.5 58q0 16 8 25q12 10 126 33.5t177 23.5q27 0 39 -6q35 -14 54.5 -40t36 -75t24.5 -63q8 -25 8 -45q0 -55 -58.5 -109.5t-193.5 -87.5q88 -66 88 -195 q0 -121 -96 -186q-93 -64 -213 -63h-8q-104 0 -216 60t-142 153q-9 19 -9 39zM430 23q0 106 86 190l258 262l463 469l350 346q29 29 45 29q20 0 41 -36t21 -58q0 -57 -80 -125q-201 -174 -540 -522.5t-523 -554.5q-61 -68 -92 -68q-23 0 -27 49q0 4 -1 10.5t-1 8.5zM954 233 q0 20 17 48q10 16 270 266t268 262q12 18 35 18q8 0 40 -5t58 -7q47 -2 72 -23.5t25 -48.5q0 -23 -17 -38q-94 -98 -239 -404q61 4 82 4q41 0 79.5 -16.5t38.5 -50.5q0 -29 -34 -29q-8 0 -13 2h-14q-39 0 -192 -23q-63 -141 -72 -192q-6 -29 -49 -29q-39 0 -75 19.5 t-36 46.5v8q2 6 59 119q-156 -27 -178 -33q-12 -2 -30 -2q-29 0 -58 35q-37 40 -37 73zM1112 254l101 14l110 15q125 250 150 315q-76 -53 -193 -167t-168 -177z" />
<glyph unicode="&#xbf;" horiz-adv-x="1019" d="M41 272q0 150 213 308q37 27 194.5 96t310 154t218.5 171q2 6 16 7q31 0 69 -20.5t38 -43.5q2 -4 2 -12q0 -119 -120 -213t-380 -207q-213 -90 -314.5 -172t-101.5 -137q0 -51 74 -51q98 0 231.5 77.5t178.5 163.5q29 53 71.5 53t80.5 -45t38 -86q0 -8 -4 -20 q-20 -45 -112.5 -123t-219.5 -145.5t-217 -67.5q-43 0 -80 18q-29 16 -60.5 70.5t-57.5 77.5q-68 57 -68 147zM1018 1161q0 47 57.5 114.5t102.5 67.5q37 0 62.5 -27.5t25.5 -64.5q0 -55 -47.5 -123.5t-102.5 -68.5q-43 0 -70.5 34.5t-27.5 67.5z" />
<glyph unicode="&#xc0;" d="M-184 47q0 8 10 29q29 43 186 239q-14 53 -14 64q0 27 20 31q27 10 95 26l557 654q309 356 342 385q37 31 63 30q12 0 27.5 -5t41 -15l50.5 -19q12 -4 50 -14t61.5 -18.5t52 -22.5t43 -35.5t14.5 -50.5q0 -16 -6 -41q-45 -131 -120 -401l-150 -556q-76 -286 -78 -294 q-31 -102 -125 -103q-68 0 -152 42t-84 102q0 37 33 123q27 74 74 225q-272 -27 -528 -107q-254 -319 -267 -340q-27 -41 -55 -41q-27 0 -66 35l-19 16q-11 9 -17.5 13t-13.5 11t-11 10.5t-8 8.5t-5 10t-1 9zM440 514q406 90 426 96l178 600q-166 -161 -604 -696zM911 2044 q-3 6 -2 11q0 10 13 9q31 0 121 -37.5t124 -66.5q33 -27 39 -62q12 -63 99 -276q7 -15 6 -24q0 -15 -19 -15q-4 0 -8 2q-16 2 -66.5 22.5t-66.5 24.5q-33 4 -68 37q-23 18 -32 39q-117 268 -140 336z" />
<glyph unicode="&#xc1;" d="M-184 47q0 8 10 29q29 43 186 239q-14 53 -14 64q0 27 20 31q27 10 95 26l557 654q309 356 342 385q37 31 63 30q12 0 27.5 -5t41 -15l50.5 -19q12 -4 50 -14t61.5 -18.5t52 -22.5t43 -35.5t14.5 -50.5q0 -16 -6 -41q-45 -131 -120 -401l-150 -556q-76 -286 -78 -294 q-31 -102 -125 -103q-68 0 -152 42t-84 102q0 37 33 123q27 74 74 225q-272 -27 -528 -107q-254 -319 -267 -340q-27 -41 -55 -41q-27 0 -66 35l-19 16q-11 9 -17.5 13t-13.5 11t-11 10.5t-8 8.5t-5 10t-1 9zM440 514q406 90 426 96l178 600q-166 -161 -604 -696z" />
<glyph unicode="&#xc2;" d="M-184 47q0 8 10 29q29 43 186 239q-14 53 -14 64q0 27 20 31q27 10 95 26l557 654q309 356 342 385q37 31 63 30q12 0 27.5 -5t41 -15l50.5 -19q12 -4 50 -14t61.5 -18.5t52 -22.5t43 -35.5t14.5 -50.5q0 -16 -6 -41q-45 -131 -120 -401l-150 -556q-76 -286 -78 -294 q-31 -102 -125 -103q-68 0 -152 42t-84 102q0 37 33 123q27 74 74 225q-272 -27 -528 -107q-254 -319 -267 -340q-27 -41 -55 -41q-27 0 -66 35l-19 16q-11 9 -17.5 13t-13.5 11t-11 10.5t-8 8.5t-5 10t-1 9zM440 514q406 90 426 96l178 600q-166 -161 -604 -696zM1018 1622 q0 20 33 51l354 312q23 18 39 18q39 0 101.5 -42t62.5 -77q0 -14 -11 -35q-23 -45 -88 -258q-6 -35 -36 -35q-16 0 -52.5 20.5t-48.5 25.5q-43 14 -43 55q0 2 23 100l-191 -166q-49 -35 -67 -35q-16 0 -34 20.5t-28 25.5q-14 4 -14 20z" />
<glyph unicode="&#xc3;" d="M-184 47q0 8 10 29q29 43 186 239q-14 53 -14 64q0 27 20 31q27 10 95 26l557 654q309 356 342 385q37 31 63 30q12 0 27.5 -5t41 -15l50.5 -19q12 -4 50 -14t61.5 -18.5t52 -22.5t43 -35.5t14.5 -50.5q0 -16 -6 -41q-45 -131 -120 -401l-150 -556q-76 -286 -78 -294 q-31 -102 -125 -103q-68 0 -152 42t-84 102q0 37 33 123q27 74 74 225q-272 -27 -528 -107q-254 -319 -267 -340q-27 -41 -55 -41q-27 0 -66 35l-19 16q-11 9 -17.5 13t-13.5 11t-11 10.5t-8 8.5t-5 10t-1 9zM440 514q406 90 426 96l178 600q-166 -161 -604 -696zM1016 1645 q0 78 13 109.5t77 72.5q70 45 129 45q49 0 123 -41t112 -41q55 0 127 59q6 6 15 6q16 0 27.5 -27.5t11.5 -64.5q0 -80 -54.5 -128t-134.5 -48q-47 0 -114.5 39t-108.5 39q-66 0 -149 -66q-25 -23 -43 -22q-31 0 -31 68z" />
<glyph unicode="&#xc4;" d="M-184 47q0 8 10 29q29 43 186 239q-14 53 -14 64q0 27 20 31q27 10 95 26l557 654q309 356 342 385q37 31 63 30q12 0 27.5 -5t41 -15l50.5 -19q12 -4 50 -14t61.5 -18.5t52 -22.5t43 -35.5t14.5 -50.5q0 -16 -6 -41q-45 -131 -120 -401l-150 -556q-76 -286 -78 -294 q-31 -102 -125 -103q-68 0 -152 42t-84 102q0 37 33 123q27 74 74 225q-272 -27 -528 -107q-254 -319 -267 -340q-27 -41 -55 -41q-27 0 -66 35l-19 16q-11 9 -17.5 13t-13.5 11t-11 10.5t-8 8.5t-5 10t-1 9zM440 514q406 90 426 96l178 600q-166 -161 -604 -696zM969 1683 q0 41 37.5 70t113.5 29t114 -30t38 -73q0 -45 -40 -80.5t-106 -35.5q-70 0 -113.5 36.5t-43.5 83.5zM1374 1686q0 41 38 68.5t114 27.5t113.5 -30t37.5 -73q0 -45 -41 -80.5t-104 -35.5q-70 0 -114 38t-44 85z" />
<glyph unicode="&#xc5;" d="M-184 47q0 8 10 29q29 43 186 239q-14 53 -14 64q0 27 20 31q27 10 95 26l557 654q309 356 342 385q37 31 63 30q12 0 27.5 -5t41 -15l50.5 -19q12 -4 50 -14t61.5 -18.5t52 -22.5t43 -35.5t14.5 -50.5q0 -16 -6 -41q-45 -131 -120 -401l-150 -556q-76 -286 -78 -294 q-31 -102 -125 -103q-68 0 -152 42t-84 102q0 37 33 123q27 74 74 225q-272 -27 -528 -107q-254 -319 -267 -340q-27 -41 -55 -41q-27 0 -66 35l-19 16q-11 9 -17.5 13t-13.5 11t-11 10.5t-8 8.5t-5 10t-1 9zM440 514q406 90 426 96l178 600q-166 -161 -604 -696zM1165 1636 q0 106 105.5 231.5t177.5 151.5q14 6 31 6q29 0 80 -43q6 -6 34.5 -23t40 -39t11.5 -60v-11q-4 -100 -116 -241.5t-196 -141.5q-55 0 -102 58l-10 10q-8 8 -14.5 13t-14.5 16.5t-13 21.5t-9.5 23.5t-4.5 27.5zM1298 1606q0 -33 37 -33t125 114.5t88 163.5q0 20 -18 21 q-49 0 -140.5 -104.5t-91.5 -161.5z" />
<glyph unicode="&#xc6;" horiz-adv-x="1703" d="M-266 72q0 14 14 30q80 104 685 681t667 618q41 27 69 26q18 0 105 -38q4 4 8 6q31 14 289 42.5t336 30.5h32q61 0 99.5 -12t101.5 -55q35 -25 35 -62q0 -27 -21 -30q-35 -10 -536 -92q-160 -207 -326 -449q246 45 414 45h8q29 -2 71 -36t56 -52q6 -6 6 -16 q0 -37 -53 -37h-2q-68 0 -649 -127q-117 -178 -205 -334q117 27 269.5 49.5t199.5 22.5h4q72 -4 124 -38t52 -83v-4q0 -16 -106 -42l-290 -72q-183 -46 -317 -101q-6 -2 -18 -2q-55 0 -137 57q-84 59 -84 162q0 37 14 71q14 45 127 232q-307 -74 -479 -123 q-299 -283 -363 -356q-29 -37 -57 -37q-31 0 -72 41q-10 8 -24 22.5t-20.5 19.5t-13.5 14t-10 15.5t-3 12.5zM547 578q184 57 358 100l316 502q-258 -209 -674 -602z" />
<glyph unicode="&#xc7;" horiz-adv-x="1118" d="M-31 -309q0 25 20.5 40t53.5 15q45 0 70.5 -24.5t37 -54t19.5 -34.5q53 -25 129 -24q47 0 90 18.5t43 59.5q0 27 -38 46t-97 36.5l-66 19.5q-33 14 -32 92q0 68 49 133q-12 10 -35 33q-12 14 -40 41t-36 36t-25.5 30.5t-23.5 36t-14 37t-10.5 47t-2.5 57.5q0 168 109 378 t258.5 376.5t306 281.5t248.5 115q45 0 83 -30t77 -82t57 -68q102 -94 103 -197q0 -72 -85 -202t-149 -167q-29 -18 -63 -18q-55 0 -92 50t-37 108q0 49 39.5 100t90 98t62.5 69.5t12 37t-16 14.5q-123 0 -304 -178t-313.5 -407.5t-132.5 -368.5q0 -80 32 -127t93 -47 q14 0 56 8q111 31 325.5 250t300.5 327q8 12 23 13q35 0 35 -66q0 -55 -27 -121q-29 -72 -85 -157.5t-138 -179t-194.5 -155t-227.5 -61.5q-59 0 -100 8q-4 -6 -35 -43q51 -16 76.5 -27t64.5 -35t56.5 -56.5t17.5 -77.5q0 -98 -78 -145.5t-186 -47.5q-158 0 -267 74 q-88 60 -88 115z" />
<glyph unicode="&#xc8;" horiz-adv-x="1026" d="M-41 160q0 37 14 71q25 72 274 475.5t359 565.5q-16 45 -16 82q0 35 14 41q33 14 291 42.5t334 30.5h35q61 0 99 -12t99 -55q35 -23 35 -62q0 -29 -20 -30q-35 -12 -535 -92q-154 -195 -340 -467q313 47 438 47q29 0 73 -30t65 -56q6 -12 6 -19q0 -37 -56 -37 q-92 0 -316 -45t-392 -137l-158 -262q117 27 268.5 49.5t198.5 22.5q63 0 122.5 -32t59.5 -89v-4q0 -16 -106 -42l-291 -72q-184 -46 -317 -101q-4 -2 -19 -2q-53 0 -135 57q-84 60 -84 162zM717 1993q-3 6 -3 10q0 10 13 10q31 0 121 -38t125 -66q33 -27 39 -62 q12 -63 98 -276q8 -15 8 -24q0 -15 -20 -15q-4 0 -8 2q-16 2 -66.5 22.5t-67.5 24.5q-33 4 -67 37q-23 18 -33 39q-116 268 -139 336z" />
<glyph unicode="&#xc9;" horiz-adv-x="1026" d="M-41 160q0 37 14 71q25 72 274 475.5t359 565.5q-16 45 -16 82q0 35 14 41q33 14 291 42.5t334 30.5h35q61 0 99 -12t99 -55q35 -23 35 -62q0 -29 -20 -30q-35 -12 -535 -92q-154 -195 -340 -467q313 47 438 47q29 0 73 -30t65 -56q6 -12 6 -19q0 -37 -56 -37 q-92 0 -316 -45t-392 -137l-158 -262q117 27 268.5 49.5t198.5 22.5q63 0 122.5 -32t59.5 -89v-4q0 -16 -106 -42l-291 -72q-184 -46 -317 -101q-4 -2 -19 -2q-53 0 -135 57q-84 60 -84 162zM1063 1597q0 16 14 39q193 272 244 336q18 20 35 21q29 0 77 -38t48 -66.5 t-31 -61.5q-66 -68 -219 -277q-27 -39 -55 -39q-4 0 -9 2q-12 2 -39.5 22.5t-37.5 25.5q-27 5 -27 36z" />
<glyph unicode="&#xca;" horiz-adv-x="1026" d="M-41 160q0 37 14 71q25 72 274 475.5t359 565.5q-16 45 -16 82q0 35 14 41q33 14 291 42.5t334 30.5h35q61 0 99 -12t99 -55q35 -23 35 -62q0 -29 -20 -30q-35 -12 -535 -92q-154 -195 -340 -467q313 47 438 47q29 0 73 -30t65 -56q6 -12 6 -19q0 -37 -56 -37 q-92 0 -316 -45t-392 -137l-158 -262q117 27 268.5 49.5t198.5 22.5q63 0 122.5 -32t59.5 -89v-4q0 -16 -106 -42l-291 -72q-184 -46 -317 -101q-4 -2 -19 -2q-53 0 -135 57q-84 60 -84 162zM864 1602q0 20 33 51l354 311q23 18 39 18q39 0 101.5 -41.5t62.5 -76.5 q0 -14 -10 -35q-23 -45 -88 -258q-6 -35 -37 -35q-16 0 -52 20.5t-48 24.5q-43 14 -43 55q0 2 22 101l-190 -166q-49 -35 -68 -35q-16 0 -33.5 20.5t-27.5 24.5q-15 5 -15 21z" />
<glyph unicode="&#xcb;" horiz-adv-x="1026" d="M-41 160q0 37 14 71q25 72 274 475.5t359 565.5q-16 45 -16 82q0 35 14 41q33 14 291 42.5t334 30.5h35q61 0 99 -12t99 -55q35 -23 35 -62q0 -29 -20 -30q-35 -12 -535 -92q-154 -195 -340 -467q313 47 438 47q29 0 73 -30t65 -56q6 -12 6 -19q0 -37 -56 -37 q-92 0 -316 -45t-392 -137l-158 -262q117 27 268.5 49.5t198.5 22.5q63 0 122.5 -32t59.5 -89v-4q0 -16 -106 -42l-291 -72q-184 -46 -317 -101q-4 -2 -19 -2q-53 0 -135 57q-84 60 -84 162zM856 1653q0 41 38 69.5t114 28.5q74 0 112.5 -29.5t38.5 -72.5q0 -45 -40 -81 t-105 -36q-70 0 -114 37t-44 84zM1262 1655q0 41 37.5 68.5t113.5 27.5t114 -29.5t38 -72.5q0 -45 -41 -81t-105 -36q-70 0 -113.5 38t-43.5 85z" />
<glyph unicode="&#xcc;" horiz-adv-x="505" d="M-61 156q0 37 24 73q29 41 184 286l324 501q168 256 258 377q23 31 51 30q49 0 128 -55t79 -100q0 -41 -39 -82q-170 -186 -401.5 -560t-349.5 -603q-37 -74 -86 -74q-53 0 -112.5 76t-59.5 131zM635 1921q-3 6 -3 11q0 10 13 10q31 0 121 -38t125 -67q33 -27 39 -61 q12 -63 98 -277q8 -15 8 -24q0 -15 -20 -15q-4 0 -8 2q-16 2 -66.5 22.5t-67.5 24.5q-33 4 -67 37q-23 18 -33 39q-116 268 -139 336z" />
<glyph unicode="&#xcd;" horiz-adv-x="505" d="M-61 156q0 37 24 73q29 41 184 286l324 501q168 256 258 377q23 31 51 30q49 0 128 -55t79 -100q0 -41 -39 -82q-170 -186 -401.5 -560t-349.5 -603q-37 -74 -86 -74q-53 0 -112.5 76t-59.5 131zM889 1516q0 16 14 38q193 272 244 336q18 20 35 21q29 0 77 -38t48 -66.5 t-31 -61.5q-66 -68 -219 -277q-27 -39 -56 -38q-4 0 -8 2q-12 2 -39.5 22.5t-38.5 24.5q-26 6 -26 37z" />
<glyph unicode="&#xce;" horiz-adv-x="505" d="M-61 156q0 37 24 73q29 41 184 286l324 501q168 256 258 377q23 31 51 30q49 0 128 -55t79 -100q0 -41 -39 -82q-170 -186 -401.5 -560t-349.5 -603q-37 -74 -86 -74q-53 0 -112.5 76t-59.5 131zM700 1550q0 20 33 52l354 311q23 18 39 18q39 0 101.5 -42t62.5 -77 q0 -14 -10 -34q-23 -45 -88 -258q-6 -35 -37 -35q-16 0 -52 20.5t-48 24.5q-43 14 -43 55q0 2 22 101l-190 -166q-49 -35 -68 -35q-16 0 -33.5 20.5t-27.5 24.5q-15 4 -15 20z" />
<glyph unicode="&#xcf;" horiz-adv-x="505" d="M-61 156q0 37 24 73q29 41 184 286l324 501q168 256 258 377q23 31 51 30q49 0 128 -55t79 -100q0 -41 -39 -82q-170 -186 -401.5 -560t-349.5 -603q-37 -74 -86 -74q-53 0 -112.5 76t-59.5 131zM651 1612q0 41 38 69.5t114 28.5q74 0 112.5 -29.5t38.5 -72.5 q0 -45 -40 -81t-105 -36q-70 0 -114 37t-44 84zM1057 1614q0 41 38 68.5t113.5 27.5t113.5 -29.5t38 -72.5q0 -45 -41 -81t-105 -36q-70 0 -113.5 38t-43.5 85z" />
<glyph unicode="&#xd0;" horiz-adv-x="1347" d="M-20 162q0 43 16 76q20 53 250 393q-43 0 -76 4q-68 10 -68 88q0 76 26 97.5t97 21.5q102 0 166 -2l238 336q-94 -43 -213 -107q-27 -14 -51 -14q-45 0 -103.5 50t-58.5 95q0 29 28 43q6 2 76 38t90 45l83 38q62 29 99 40l92 28q56 16 105 22t98 6q197 0 361 -121 q2 0 22 -15l31 -24l35 -28q25 -20 38 -37l35 -43q22 -27 34 -53.5t25 -59t19.5 -71.5t6.5 -80q0 -209 -134.5 -435.5t-349.5 -379t-426 -152.5q-119 0 -205.5 45t-115.5 123l-51 -102q-29 -63 -78 -64q-51 0 -96 62.5t-45 136.5zM369 301q0 -137 123 -137q139 0 316 157.5 t300 368.5t123 357q0 121 -55.5 177t-169.5 56q-45 0 -93 -8q41 -37 41 -86q0 -39 -26 -66q-39 -39 -215 -286h4q35 0 81 -46.5t46 -87.5q0 -47 -72 -57q-66 -10 -205 -14l-196 -297q-2 -11 -2 -31z" />
<glyph unicode="&#xd1;" horiz-adv-x="1296" d="M-143 113q0 29 16 67q12 23 399 593l396 583q20 31 61 30q33 0 107 -30q18 -8 76.5 -20.5t91.5 -39.5q4 -4 16 -14t17 -15t13.5 -15.5t11.5 -19.5t3 -20q0 -12 -2 -20q-8 -25 -48 -125t-70 -186t-63.5 -232.5t-45.5 -294.5q82 111 394 568.5t345 509.5q16 31 72 30 q61 0 131.5 -44t70.5 -101q0 -41 -49 -88q-223 -217 -860 -1172q-61 -92 -135 -92q-47 0 -111 47q-8 6 -55 30t-72.5 55.5t-25.5 86.5q0 70 18.5 178.5t34.5 184.5t50 213t40 166l-344 -512q-233 -354 -258 -398q-23 -41 -78 -41t-101 40.5t-46 97.5z" />
<glyph unicode="&#xd2;" horiz-adv-x="1161" d="M102 342q0 129 89.5 326.5t214 375t273 305.5t257.5 128q33 0 70 -17q37 -20 58 -45.5t46 -65.5t55 -71q23 -23 63 -55.5t58.5 -51t33.5 -60.5t15 -101q0 -125 -77.5 -306.5t-195.5 -346t-276.5 -282.5t-302.5 -118q-74 0 -116 37q-45 43 -107.5 92t-88.5 78t-50 78 q-19 43 -19 100zM342 268q0 -49 24.5 -87t71.5 -38q100 0 263 186.5t284 405.5t121 316q0 43 -21.5 77.5t-62.5 34.5q-92 0 -256 -162.5t-294 -380t-130 -352.5zM911 1880q-3 6 -2 11q0 10 13 10q31 0 121 -38t124 -67q33 -27 39 -61q12 -63 99 -277q7 -15 6 -24 q0 -15 -19 -15q-4 0 -8 2q-16 2 -66.5 22.5t-66.5 24.5q-33 4 -68 37q-23 18 -32 39q-117 268 -140 336z" />
<glyph unicode="&#xd3;" horiz-adv-x="1161" d="M102 342q0 129 89.5 326.5t214 375t273 305.5t257.5 128q33 0 70 -17q37 -20 58 -45.5t46 -65.5t55 -71q23 -23 63 -55.5t58.5 -51t33.5 -60.5t15 -101q0 -125 -77.5 -306.5t-195.5 -346t-276.5 -282.5t-302.5 -118q-74 0 -116 37q-45 43 -107.5 92t-88.5 78t-50 78 q-19 43 -19 100zM342 268q0 -49 24.5 -87t71.5 -38q100 0 263 186.5t284 405.5t121 316q0 43 -21.5 77.5t-62.5 34.5q-92 0 -256 -162.5t-294 -380t-130 -352.5zM1176 1454q0 16 14 39q193 272 244 336q18 20 34 20q29 0 77 -37.5t48 -66.5t-30 -62q-66 -68 -220 -276 q-27 -39 -55 -39q-4 0 -8 2q-12 2 -40 22.5t-38 24.5q-26 6 -26 37z" />
<glyph unicode="&#xd4;" horiz-adv-x="1161" d="M102 342q0 129 89.5 326.5t214 375t273 305.5t257.5 128q33 0 70 -17q37 -20 58 -45.5t46 -65.5t55 -71q23 -23 63 -55.5t58.5 -51t33.5 -60.5t15 -101q0 -125 -77.5 -306.5t-195.5 -346t-276.5 -282.5t-302.5 -118q-74 0 -116 37q-45 43 -107.5 92t-88.5 78t-50 78 q-19 43 -19 100zM342 268q0 -49 24.5 -87t71.5 -38q100 0 263 186.5t284 405.5t121 316q0 43 -21.5 77.5t-62.5 34.5q-92 0 -256 -162.5t-294 -380t-130 -352.5zM1079 1509q0 20 33 52l354 311q23 18 39 18q39 0 101.5 -42t62.5 -76q0 -14 -10 -35q-23 -45 -88 -258 q-6 -35 -37 -35q-16 0 -52 20.5t-48 24.5q-43 14 -43 55q0 2 22 101l-190 -166q-49 -35 -68 -35q-16 0 -33.5 20.5t-27.5 24.5q-15 4 -15 20z" />
<glyph unicode="&#xd5;" horiz-adv-x="1161" d="M102 342q0 129 89.5 326.5t214 375t273 305.5t257.5 128q33 0 70 -17q37 -20 58 -45.5t46 -65.5t55 -71q23 -23 63 -55.5t58.5 -51t33.5 -60.5t15 -101q0 -125 -77.5 -306.5t-195.5 -346t-276.5 -282.5t-302.5 -118q-74 0 -116 37q-45 43 -107.5 92t-88.5 78t-50 78 q-19 43 -19 100zM342 268q0 -49 24.5 -87t71.5 -38q100 0 263 186.5t284 405.5t121 316q0 43 -21.5 77.5t-62.5 34.5q-92 0 -256 -162.5t-294 -380t-130 -352.5zM995 1614q0 78 13.5 109.5t76.5 72.5q70 45 129 45q49 0 123 -41t113 -41q55 0 127 60q6 6 14 6q16 0 27.5 -28 t11.5 -64q0 -80 -54 -128.5t-134 -48.5q-47 0 -114.5 39t-108.5 39q-66 0 -150 -65q-25 -23 -43 -23q-31 0 -31 68z" />
<glyph unicode="&#xd6;" horiz-adv-x="1161" d="M102 342q0 129 89.5 326.5t214 375t273 305.5t257.5 128q33 0 70 -17q37 -20 58 -45.5t46 -65.5t55 -71q23 -23 63 -55.5t58.5 -51t33.5 -60.5t15 -101q0 -125 -77.5 -306.5t-195.5 -346t-276.5 -282.5t-302.5 -118q-74 0 -116 37q-45 43 -107.5 92t-88.5 78t-50 78 q-19 43 -19 100zM342 268q0 -49 24.5 -87t71.5 -38q100 0 263 186.5t284 405.5t121 316q0 43 -21.5 77.5t-62.5 34.5q-92 0 -256 -162.5t-294 -380t-130 -352.5zM969 1622q0 41 37.5 69.5t113.5 28.5t114 -29.5t38 -72.5q0 -45 -40 -81t-106 -36q-70 0 -113.5 37t-43.5 84z M1374 1624q0 41 38 68.5t114 27.5t113.5 -29.5t37.5 -72.5q0 -45 -41 -81t-104 -36q-70 0 -114 38t-44 85z" />
<glyph unicode="&#xd7;" horiz-adv-x="667" d="M0 371q0 23 27 43l315 276q0 262 12 348q2 14 21 15q31 0 104.5 -27t93.5 -49q20 -20 13 -45q-8 -18 -13 -45l185 151q20 14 43 15q37 0 95 -27t60 -49q0 -18 -38 -45q-125 -78 -361 -283q6 -209 29 -340q6 -37 -27 -37q-35 0 -102.5 36t-91.5 63q-23 23 -21 43v39 l-147 -144q-35 -37 -74 -37q-41 0 -82 36t-41 63z" />
<glyph unicode="&#xd8;" horiz-adv-x="1189" d="M102 4v19q0 86 56 159q-16 23 -37 60q-18 43 -19 100q0 129 89.5 326.5t214 375t273 305.5t257.5 128q33 0 70 -17q37 -20 58 -45.5t46 -65.5t55 -71q16 -16 41 -37q20 20 54 49q29 29 45 29q20 0 39.5 -36t19.5 -58q0 -45 -49 -97q20 -47 20 -118q0 -125 -77.5 -306.5 t-195.5 -346t-276.5 -282.5t-302.5 -118q-74 0 -116 37q-45 43 -97 82q-8 -10 -24 -28l-25 -25q-61 -68 -90 -68q-25 0 -29 49zM367 180q27 -37 71 -37q121 0 323 258t302 494zM367 397l720 727q-25 39 -65 39q-78 0 -215 -127t-264 -309.5t-176 -329.5z" />
<glyph unicode="&#xd9;" horiz-adv-x="1220" d="M20 268q0 119 92.5 300.5t200.5 327.5l224 294q115 147 133 176q8 10 41 10q41 0 86 -18.5t69 -57.5q59 -100 60 -129q0 -23 -33 -61q-2 -2 -72 -84l-107 -129l-115 -143q-77 -96 -124 -164l-99 -148q-52 -80 -78 -141t-26 -100q0 -27 23 -27q16 0 37 6 q141 37 373.5 275.5t416 487.5t289.5 429q31 57 74 58q49 0 117.5 -83t68.5 -137q0 -35 -31 -73l-564 -742q-290 -391 -374 -540q-33 -49 -75 -50q-49 0 -78 71t-29 128q0 41 15 84q-154 -88 -252 -88q-18 0 -37 4t-30 8t-24.5 14.5t-19.5 14.5t-18 16l-15 15l-34 29l-30 28 q-9 8 -22.5 23.5t-18.5 30t-9.5 36.5t-4.5 49zM881 1788q-3 6 -3 11q0 10 13 9q31 0 121 -37.5t125 -66.5q33 -27 39 -61q12 -63 98 -277q8 -15 8 -24q0 -15 -20 -15q-4 0 -9 2q-16 2 -66 22.5t-67 24.5q-33 4 -67 37q-23 18 -33 39q-116 268 -139 336z" />
<glyph unicode="&#xda;" horiz-adv-x="1220" d="M20 268q0 119 92.5 300.5t200.5 327.5l224 294q115 147 133 176q8 10 41 10q41 0 86 -18.5t69 -57.5q59 -100 60 -129q0 -23 -33 -61q-2 -2 -72 -84l-107 -129l-115 -143q-77 -96 -124 -164l-99 -148q-52 -80 -78 -141t-26 -100q0 -27 23 -27q16 0 37 6 q141 37 373.5 275.5t416 487.5t289.5 429q31 57 74 58q49 0 117.5 -83t68.5 -137q0 -35 -31 -73l-564 -742q-290 -391 -374 -540q-33 -49 -75 -50q-49 0 -78 71t-29 128q0 41 15 84q-154 -88 -252 -88q-18 0 -37 4t-30 8t-24.5 14.5t-19.5 14.5t-18 16l-15 15l-34 29l-30 28 q-9 8 -22.5 23.5t-18.5 30t-9.5 36.5t-4.5 49zM1135 1464q0 16 14 39q193 272 244 336q18 20 34 21q29 0 77 -38t48 -67q0 -27 -30 -61q-66 -68 -219 -277q-27 -39 -56 -39q-4 0 -8 2q-12 2 -40 22.5t-38 24.5q-26 6 -26 37z" />
<glyph unicode="&#xdb;" horiz-adv-x="1220" d="M20 268q0 119 92.5 300.5t200.5 327.5l224 294q115 147 133 176q8 10 41 10q41 0 86 -18.5t69 -57.5q59 -100 60 -129q0 -23 -33 -61q-2 -2 -72 -84l-107 -129l-115 -143q-77 -96 -124 -164l-99 -148q-52 -80 -78 -141t-26 -100q0 -27 23 -27q16 0 37 6 q141 37 373.5 275.5t416 487.5t289.5 429q31 57 74 58q49 0 117.5 -83t68.5 -137q0 -35 -31 -73l-564 -742q-290 -391 -374 -540q-33 -49 -75 -50q-49 0 -78 71t-29 128q0 41 15 84q-154 -88 -252 -88q-18 0 -37 4t-30 8t-24.5 14.5t-19.5 14.5t-18 16l-15 15l-34 29l-30 28 q-9 8 -22.5 23.5t-18.5 30t-9.5 36.5t-4.5 49zM1049 1540q0 20 32 51l355 312q23 18 39 18q39 0 101 -42t62 -77q0 -14 -10 -35q-23 -45 -88 -258q-6 -35 -37 -34q-16 0 -52 20.5t-48 24.5q-43 14 -43 55q0 2 22 100l-190 -166q-49 -35 -68 -34q-16 0 -33.5 20.5t-27.5 24.5 q-14 4 -14 20z" />
<glyph unicode="&#xdc;" horiz-adv-x="1220" d="M20 268q0 119 92.5 300.5t200.5 327.5l224 294q115 147 133 176q8 10 41 10q41 0 86 -18.5t69 -57.5q59 -100 60 -129q0 -23 -33 -61q-2 -2 -72 -84l-107 -129l-115 -143q-77 -96 -124 -164l-99 -148q-52 -80 -78 -141t-26 -100q0 -27 23 -27q16 0 37 6 q141 37 373.5 275.5t416 487.5t289.5 429q31 57 74 58q49 0 117.5 -83t68.5 -137q0 -35 -31 -73l-564 -742q-290 -391 -374 -540q-33 -49 -75 -50q-49 0 -78 71t-29 128q0 41 15 84q-154 -88 -252 -88q-18 0 -37 4t-30 8t-24.5 14.5t-19.5 14.5t-18 16l-15 15l-34 29l-30 28 q-9 8 -22.5 23.5t-18.5 30t-9.5 36.5t-4.5 49zM1061 1612q0 41 38 69.5t113 28.5q74 0 113 -29.5t39 -72.5q0 -45 -40 -81t-105 -36q-70 0 -114 37t-44 84zM1466 1614q0 41 38 68.5t114 27.5t113.5 -29.5t37.5 -72.5q0 -45 -40.5 -81t-104.5 -36q-70 0 -114 38t-44 85z" />
<glyph unicode="&#xdd;" horiz-adv-x="839" d="M-143 104q0 27 22 48q10 8 63 58l151 146l192 183v61q0 139 6 450.5t6 331.5q0 39 31.5 67t83.5 28q70 0 116.5 -42t46.5 -112q0 -18 -2 -27q-35 -287 -34 -440q0 -55 2 -80q614 559 807 637q41 16 92 17q49 0 103 -28t54 -71q0 -29 -34 -57q-285 -227 -726.5 -622.5 t-707.5 -706.5q-23 -29 -53 -29q-53 0 -136 69.5t-83 118.5zM797 1475q0 16 14 38q193 272 244 336q18 20 35 21q29 0 76.5 -38t47.5 -66.5t-30 -61.5q-66 -68 -219 -277q-27 -39 -56 -38q-4 0 -8 2q-12 2 -39.5 22.5t-38.5 24.5q-26 6 -26 37z" />
<glyph unicode="&#xde;" horiz-adv-x="1169" d="M-20 106q0 20 10 48q55 123 399 651q-84 -41 -133 -72q-23 -16 -43 -16q-27 0 -49.5 21.5t-32.5 54.5q-23 72 -22 88q0 27 22 49q29 27 171 85t294 103l168 254q41 66 94 66q66 0 138.5 -39t72.5 -96q0 -43 -33 -72q-29 -25 -55 -57q4 0 20 -5q47 -10 77 -37.5 t58.5 -77.5t45.5 -69q111 -131 110 -233v-15q-4 -84 -72.5 -187.5t-174 -193.5t-251 -150.5t-286.5 -60.5q-90 0 -178 25q-57 -98 -88 -158q-23 -41 -58 -41q-20 0 -67 19.5t-62 23.5q-75 22 -75 92zM449 373q78 10 181 50t207.5 101.5t176 151.5t71.5 184q0 104 -153 105 q-51 0 -117 -11q-147 -212 -366 -581z" />
<glyph unicode="&#xdf;" horiz-adv-x="1155" d="M-420 -549q25 289 811 1389l69 95q15 22 70.5 93.5t84.5 99.5l88 82q58 53 103.5 76t106 42.5t119.5 19.5q109 0 177.5 -68t68.5 -174q0 -88 -53.5 -180t-119 -154.5t-118.5 -125t-53 -101.5q0 -29 19.5 -66t41.5 -63l64 -72l59 -65q51 -63 51 -127q0 -90 -65.5 -143.5 t-155.5 -53.5q-106 0 -223 58.5t-182 142.5q-59 80 -60 131q0 63 65.5 63t92.5 -35.5t32 -83t13 -55.5q29 -29 92.5 -58.5t118.5 -29.5q25 0 53.5 12.5t28.5 34.5q0 20 -39 59l-85 80q-46 43 -85 120t-39 165q0 141 129 275q217 229 246 274q14 25 14 41q0 20 -20.5 31.5 t-42.5 11.5q-51 0 -125 -64.5t-130 -135.5l-155 -204q-14 -20 -22 -30l-383 -520q70 -12 124 -56.5t54 -107.5q0 -98 -50.5 -260t-129 -321t-191 -273.5t-221.5 -114.5q-61 0 -154.5 101.5t-93.5 222.5v22zM-252 -705q0 -76 41 -75q49 0 151.5 128t200 331.5t115.5 375.5v2 q0 16 -25.5 26.5t-52.5 10.5q-10 0 -14 -2q-23 -6 -123 -155.5t-196.5 -345.5t-96.5 -296z" />
<glyph unicode="&#xe0;" horiz-adv-x="905" d="M0 186q0 102 62.5 225.5t150.5 221.5t173 171t136 95q33 12 49 12q53 0 129 -65q35 -25 58 -90q33 53 47 71q23 25 51 25q49 0 97 -47t48 -96q0 -29 -20 -50q-49 -47 -201.5 -255.5t-152.5 -239.5q0 -35 15 -52.5t34 -17.5q117 0 325 254q14 16 31 17q27 0 27 -35 q0 -45 -47 -107q-98 -135 -207 -220t-180 -85q-80 0 -127 56.5t-68 140.5q-162 -147 -240 -148q-72 0 -106 80q-12 29 -48 64.5t-36 74.5zM195 150q0 -27 18 -27q49 0 166 130t192.5 232.5l135.5 190.5q-16 29 -46 29q-55 0 -169.5 -113t-205.5 -248t-91 -194zM512 1378 q-3 6 -3 11q0 10 13 10q31 0 121 -38t125 -67q33 -27 39 -61q12 -63 98 -277q8 -15 8 -24q0 -15 -20 -14q-4 0 -8 2q-16 2 -66.5 22.5t-66.5 24.5q-33 4 -68 37q-23 18 -33 38q-116 268 -139 336z" />
<glyph unicode="&#xe1;" horiz-adv-x="905" d="M0 186q0 102 62.5 225.5t150.5 221.5t173 171t136 95q33 12 49 12q53 0 129 -65q35 -25 58 -90q33 53 47 71q23 25 51 25q49 0 97 -47t48 -96q0 -29 -20 -50q-49 -47 -201.5 -255.5t-152.5 -239.5q0 -35 15 -52.5t34 -17.5q117 0 325 254q14 16 31 17q27 0 27 -35 q0 -45 -47 -107q-98 -135 -207 -220t-180 -85q-80 0 -127 56.5t-68 140.5q-162 -147 -240 -148q-72 0 -106 80q-12 29 -48 64.5t-36 74.5zM195 150q0 -27 18 -27q49 0 166 130t192.5 232.5l135.5 190.5q-16 29 -46 29q-55 0 -169.5 -113t-205.5 -248t-91 -194zM745 1014 q0 16 15 39q193 272 244 336q18 20 34 20q29 0 77 -38t48 -66q0 -27 -30 -62q-66 -68 -220 -276q-27 -39 -55 -39q-4 0 -8 2q-12 2 -40 22.5t-38 24.5q-27 6 -27 37z" />
<glyph unicode="&#xe2;" horiz-adv-x="905" d="M0 186q0 102 62.5 225.5t150.5 221.5t173 171t136 95q33 12 49 12q53 0 129 -65q35 -25 58 -90q33 53 47 71q23 25 51 25q49 0 97 -47t48 -96q0 -29 -20 -50q-49 -47 -201.5 -255.5t-152.5 -239.5q0 -35 15 -52.5t34 -17.5q117 0 325 254q14 16 31 17q27 0 27 -35 q0 -45 -47 -107q-98 -135 -207 -220t-180 -85q-80 0 -127 56.5t-68 140.5q-162 -147 -240 -148q-72 0 -106 80q-12 29 -48 64.5t-36 74.5zM195 150q0 -27 18 -27q49 0 166 130t192.5 232.5l135.5 190.5q-16 29 -46 29q-55 0 -169.5 -113t-205.5 -248t-91 -194zM608 1008 q0 20 33 51l354 311q23 18 39 19q39 0 101.5 -42t62.5 -77q0 -14 -10 -35q-23 -45 -88 -258q-6 -35 -37 -35q-16 0 -52 20.5t-48 24.5q-43 14 -43 55q0 2 22 101l-190 -166q-49 -35 -68 -35q-16 0 -33.5 20.5t-27.5 24.5q-15 5 -15 21z" />
<glyph unicode="&#xe3;" horiz-adv-x="905" d="M0 186q0 102 62.5 225.5t150.5 221.5t173 171t136 95q33 12 49 12q53 0 129 -65q35 -25 58 -90q33 53 47 71q23 25 51 25q49 0 97 -47t48 -96q0 -29 -20 -50q-49 -47 -201.5 -255.5t-152.5 -239.5q0 -35 15 -52.5t34 -17.5q117 0 325 254q14 16 31 17q27 0 27 -35 q0 -45 -47 -107q-98 -135 -207 -220t-180 -85q-80 0 -127 56.5t-68 140.5q-162 -147 -240 -148q-72 0 -106 80q-12 29 -48 64.5t-36 74.5zM195 150q0 -27 18 -27q49 0 166 130t192.5 232.5l135.5 190.5q-16 29 -46 29q-55 0 -169.5 -113t-205.5 -248t-91 -194zM524 1020 q0 78 13.5 109.5t76.5 72.5q70 45 129 45q49 0 123 -41t113 -41q55 0 127 60q6 6 14 6q16 0 27.5 -27.5t11.5 -64.5q0 -80 -54 -128t-134 -48q-47 0 -115 38.5t-108 38.5q-66 0 -150 -65q-25 -23 -43 -23q-31 0 -31 68z" />
<glyph unicode="&#xe4;" horiz-adv-x="905" d="M0 186q0 102 62.5 225.5t150.5 221.5t173 171t136 95q33 12 49 12q53 0 129 -65q35 -25 58 -90q33 53 47 71q23 25 51 25q49 0 97 -47t48 -96q0 -29 -20 -50q-49 -47 -201.5 -255.5t-152.5 -239.5q0 -35 15 -52.5t34 -17.5q117 0 325 254q14 16 31 17q27 0 27 -35 q0 -45 -47 -107q-98 -135 -207 -220t-180 -85q-80 0 -127 56.5t-68 140.5q-162 -147 -240 -148q-72 0 -106 80q-12 29 -48 64.5t-36 74.5zM195 150q0 -27 18 -27q49 0 166 130t192.5 232.5l135.5 190.5q-16 29 -46 29q-55 0 -169.5 -113t-205.5 -248t-91 -194zM518 1079 q0 41 38 70t113.5 29t113.5 -30t38 -73q0 -45 -40 -81t-105 -36q-70 0 -114 37t-44 84zM924 1081q0 41 37.5 69t113.5 28t114 -30t38 -73q0 -45 -41 -81t-105 -36q-70 0 -113.5 38t-43.5 85z" />
<glyph unicode="&#xe5;" horiz-adv-x="905" d="M0 186q0 102 62.5 225.5t150.5 221.5t173 171t136 95q33 12 49 12q53 0 129 -65q35 -25 58 -90q33 53 47 71q23 25 51 25q49 0 97 -47t48 -96q0 -29 -20 -50q-49 -47 -201.5 -255.5t-152.5 -239.5q0 -35 15 -52.5t34 -17.5q117 0 325 254q14 16 31 17q27 0 27 -35 q0 -45 -47 -107q-98 -135 -207 -220t-180 -85q-80 0 -127 56.5t-68 140.5q-162 -147 -240 -148q-72 0 -106 80q-12 29 -48 64.5t-36 74.5zM195 150q0 -27 18 -27q49 0 166 130t192.5 232.5l135.5 190.5q-16 29 -46 29q-55 0 -169.5 -113t-205.5 -248t-91 -194zM705 1073 q0 106 105 231.5t177 151.5q16 6 31 6q31 0 80 -43q6 -6 34.5 -23.5t40 -39t11.5 -60.5v-10q-4 -100 -116 -241.5t-196 -141.5q-55 0 -102 58l-10 10q-8 8 -14.5 13t-14.5 16.5t-13 21.5t-9 23.5t-4 27.5zM838 1042q0 -33 36.5 -32.5t124.5 115t88 163.5q0 20 -18 21 q-49 0 -140 -105t-91 -162z" />
<glyph unicode="&#xe6;" horiz-adv-x="1257" d="M0 186q0 102 62.5 225.5t150.5 221.5t173 171t136 95q33 12 49 12q74 0 133.5 -68.5t63.5 -142.5q260 252 367 252h6q39 0 65 -21q29 -24 74 -91q4 -4 17 -24l20 -29q6 -9 15 -27.5t13.5 -35.5t4.5 -36q0 -12 -4 -37q-43 -178 -233 -303q-186 -123 -372 -123h-6 q-16 -45 -16 -75q0 -90 112 -91q86 0 199 62.5t170 112t105 96.5q2 4 10 4q14 0 29.5 -16.5t15.5 -36.5q0 -10 -6 -19q-59 -109 -217 -215t-263 -106q-53 0 -115.5 30.5t-109.5 81.5q-4 6 -29.5 31t-38 40t-28.5 45t-23 62l-53 -55q-201 -209 -287 -209q-72 0 -106 80 q-12 29 -48 64.5t-36 74.5zM190 149q0 -20 17 -20q33 0 115 82q197 190 389 432q-16 53 -54 53q-53 0 -167.5 -112.5t-207 -246t-92.5 -188.5zM815 373h3q91 0 224 124q135 126 136 175q0 10 -11 10q-68 0 -179.5 -110.5t-172.5 -198.5z" />
<glyph unicode="&#xe7;" horiz-adv-x="679" d="M-164 -268q0 25 20.5 40t53.5 15q45 0 70.5 -24.5t37 -54.5t19.5 -34q53 -25 129 -24q47 0 90 18.5t43 59.5q0 27 -38 46t-97.5 36.5t-65.5 19.5q-33 14 -32 92q0 27 16 72t41 74q-10 12 -27 41q-10 18 -29.5 49.5t-25.5 46t-13.5 43t-7.5 67.5v29q6 80 113 218 t242 245.5t213 107.5q35 0 57.5 -22.5t35.5 -55t21 -40.5q59 -59 60 -150q0 -49 -78 -143t-133 -94q-18 0 -41 32.5t-23 63.5q0 47 54 133q-96 -53 -228.5 -200.5t-132.5 -229.5q0 -31 35 -66.5t82 -35.5q88 0 171 35.5t132 78.5l100 90q51 47 74 60q4 2 8 2q20 0 21 -43v-6 q0 -18 -44 -73.5t-109.5 -119t-158 -113t-172.5 -49.5q-18 0 -47 4q-6 -6 -17 -20t-15 -21q51 -16 76.5 -27t64.5 -35t56.5 -56.5t17.5 -77.5q0 -98 -78 -145.5t-187 -47.5q-158 0 -266 74q-88 60 -88 115z" />
<glyph unicode="&#xe8;" horiz-adv-x="722" d="M-10 268q0 94 116.5 256t267 288t238.5 128q43 0 65.5 -17.5t67.5 -84.5q4 -4 21 -30l25 -39q8 -13 16 -37.5t8 -49.5q0 -123 -108.5 -235.5t-252 -174t-259.5 -61.5h-7q-16 -45 -16 -78q0 -92 115 -92q106 0 207.5 58.5t184.5 137t91 82.5q2 2 8 3q16 0 31.5 -16.5 t15.5 -37.5q0 -4 -4 -20q-61 -111 -223 -219.5t-266 -108.5q-55 0 -118.5 31t-113.5 86q-6 8 -27.5 29.5t-31.5 35t-24.5 38t-20.5 56t-6 72.5zM270 362h3q95 0 230 126q136 128 136 180q0 10 -10 10q-68 0 -183 -114t-176 -202zM410 1440q-3 6 -3 10q0 10 13 10 q31 0 121 -38t125 -66q33 -27 39 -62q12 -63 98 -276q8 -15 8 -24q0 -15 -20 -15q-4 0 -9 2q-16 2 -66 22.5t-67 24.5q-33 4 -67 37q-23 18 -33 39q-116 268 -139 336z" />
<glyph unicode="&#xe9;" horiz-adv-x="722" d="M-10 268q0 94 116.5 256t267 288t238.5 128q43 0 65.5 -17.5t67.5 -84.5q4 -4 21 -30l25 -39q8 -13 16 -37.5t8 -49.5q0 -123 -108.5 -235.5t-252 -174t-259.5 -61.5h-7q-16 -45 -16 -78q0 -92 115 -92q106 0 207.5 58.5t184.5 137t91 82.5q2 2 8 3q16 0 31.5 -16.5 t15.5 -37.5q0 -4 -4 -20q-61 -111 -223 -219.5t-266 -108.5q-55 0 -118.5 31t-113.5 86q-6 8 -27.5 29.5t-31.5 35t-24.5 38t-20.5 56t-6 72.5zM270 362h3q95 0 230 126q136 128 136 180q0 10 -10 10q-68 0 -183 -114t-176 -202zM612 1085q0 16 15 39q193 272 243 336 q18 20 35 21q29 0 77 -38t48 -66.5t-31 -61.5q-66 -68 -219 -277q-27 -39 -55 -39q-4 0 -8 2q-12 2 -40 22.5t-38 25.5q-27 5 -27 36z" />
<glyph unicode="&#xea;" horiz-adv-x="722" d="M-10 268q0 94 116.5 256t267 288t238.5 128q43 0 65.5 -17.5t67.5 -84.5q4 -4 21 -30l25 -39q8 -13 16 -37.5t8 -49.5q0 -123 -108.5 -235.5t-252 -174t-259.5 -61.5h-7q-16 -45 -16 -78q0 -92 115 -92q106 0 207.5 58.5t184.5 137t91 82.5q2 2 8 3q16 0 31.5 -16.5 t15.5 -37.5q0 -4 -4 -20q-61 -111 -223 -219.5t-266 -108.5q-55 0 -118.5 31t-113.5 86q-6 8 -27.5 29.5t-31.5 35t-24.5 38t-20.5 56t-6 72.5zM270 362h3q95 0 230 126q136 128 136 180q0 10 -10 10q-68 0 -183 -114t-176 -202zM485 1038q0 20 33 52l354 311q23 18 39 18 q39 0 101.5 -42t62.5 -77q0 -14 -10 -34q-23 -45 -88 -258q-6 -35 -37 -35q-16 0 -52 20.5t-48 24.5q-43 14 -43 55q0 3 22 101l-190 -166q-49 -35 -68 -35q-16 0 -33.5 20.5t-27.5 24.5q-15 4 -15 20z" />
<glyph unicode="&#xeb;" horiz-adv-x="722" d="M-10 268q0 94 116.5 256t267 288t238.5 128q43 0 65.5 -17.5t67.5 -84.5q4 -4 21 -30l25 -39q8 -13 16 -37.5t8 -49.5q0 -123 -108.5 -235.5t-252 -174t-259.5 -61.5h-7q-16 -45 -16 -78q0 -92 115 -92q106 0 207.5 58.5t184.5 137t91 82.5q2 2 8 3q16 0 31.5 -16.5 t15.5 -37.5q0 -4 -4 -20q-61 -111 -223 -219.5t-266 -108.5q-55 0 -118.5 31t-113.5 86q-6 8 -27.5 29.5t-31.5 35t-24.5 38t-20.5 56t-6 72.5zM270 362h3q95 0 230 126q136 128 136 180q0 10 -10 10q-68 0 -183 -114t-176 -202zM344 1100q0 41 38 69.5t114 28.5 q74 0 112.5 -29.5t38.5 -72.5q0 -45 -40 -81t-105 -36q-70 0 -114 37t-44 84zM750 1102q0 41 37.5 68.5t113.5 27.5t114 -29.5t38 -72.5q0 -45 -41 -81t-105 -36q-70 0 -113.5 38t-43.5 85z" />
<glyph unicode="&#xec;" horiz-adv-x="485" d="M-10 180q16 217 387 703q33 43 65 43q39 0 112 -45q71 -44 71 -76q0 -19 -25 -49q-166 -186 -293 -395t-133 -279q0 -20 10 -21q61 0 189.5 106.5t234.5 227.5q12 12 21 13q27 0 27 -51q0 -7 -1 -15q0 -27 -12 -47q-35 -59 -201 -201.5t-252 -142.5q-80 0 -143 73 q-58 66 -58 141q0 8 1 15zM317 1399q-3 6 -2 10q0 10 13 10q31 0 121 -38t124 -66q33 -27 39 -62q12 -63 99 -276q7 -15 7 -24q0 -15 -20 -15q-4 0 -8 2q-16 2 -66.5 22.5t-66.5 24.5q-33 4 -68 37q-23 18 -32 39q-117 268 -140 336z" />
<glyph unicode="&#xed;" horiz-adv-x="485" d="M-10 180q16 217 387 703q33 43 65 43q39 0 112 -45q71 -44 71 -76q0 -19 -25 -49q-166 -186 -293 -395t-133 -279q0 -20 10 -21q61 0 189.5 106.5t234.5 227.5q12 12 21 13q27 0 27 -51q0 -7 -1 -15q0 -27 -12 -47q-35 -59 -201 -201.5t-252 -142.5q-80 0 -143 73 q-58 66 -58 141q0 8 1 15zM541 1014q0 16 14 39q193 272 244 336q18 20 35 20q29 0 76.5 -38t47.5 -66q0 -27 -30 -62q-66 -68 -219 -276q-27 -39 -56 -39q-4 0 -8 2q-12 2 -39.5 22.5t-38.5 24.5q-26 6 -26 37z" />
<glyph unicode="&#xee;" horiz-adv-x="485" d="M-10 180q16 217 387 703q33 43 65 43q39 0 112 -45q71 -44 71 -76q0 -19 -25 -49q-166 -186 -293 -395t-133 -279q0 -20 10 -21q61 0 189.5 106.5t234.5 227.5q12 12 21 13q27 0 27 -51q0 -7 -1 -15q0 -27 -12 -47q-35 -59 -201 -201.5t-252 -142.5q-80 0 -143 73 q-58 66 -58 141q0 8 1 15zM383 1049q0 20 33 51l354 311q23 18 39 19q39 0 101.5 -42t62.5 -77q0 -14 -10 -35q-23 -45 -89 -258q-6 -35 -36 -35q-16 0 -52 20.5t-49 24.5q-43 14 -43 55q0 2 23 101l-191 -166q-49 -35 -67 -35q-16 0 -33.5 20.5t-28.5 24.5q-14 5 -14 21z " />
<glyph unicode="&#xef;" horiz-adv-x="485" d="M-10 180q16 217 387 703q33 43 65 43q39 0 112 -45q71 -44 71 -76q0 -19 -25 -49q-166 -186 -293 -395t-133 -279q0 -20 10 -21q61 0 189.5 106.5t234.5 227.5q12 12 21 13q27 0 27 -51q0 -7 -1 -15q0 -27 -12 -47q-35 -59 -201 -201.5t-252 -142.5q-80 0 -143 73 q-58 66 -58 141q0 8 1 15zM242 1100q0 41 37.5 69.5t113.5 28.5q74 0 113 -29.5t39 -72.5q0 -45 -40 -81t-106 -36q-70 0 -113.5 37t-43.5 84zM647 1102q0 41 38 68.5t113.5 27.5t113.5 -29.5t38 -72.5q0 -45 -41 -81t-104 -36q-70 0 -114 38t-44 85z" />
<glyph unicode="&#xf0;" horiz-adv-x="796" d="M0 250q0 186 182.5 401t309.5 267q23 10 49 10q72 0 147 -70q51 -45 84 -92q47 88 78 152q-66 0 -102 4q-61 4 -62 61q0 53 23.5 68.5t87.5 15.5h116q35 92 35 145q0 29 -15 46.5t-44 15.5q-18 0 -38 -5t-39 -17.5l-33.5 -22.5t-37.5 -32l-31 -31l-34 -35.5l-33 -34.5 q-20 -25 -35 -25q-12 0 -12 27v11q0 61 41 110q59 66 85 91t83 60t115 35q18 0 31.5 -5t20.5 -12.5l25.5 -28t36.5 -36.5q70 -66 74 -149q0 -35 -14 -84q0 -4 -3.5 -12.5t-5.5 -14.5q20 0 44 -1t26 -1q29 0 71 -33t42 -61q0 -33 -64 -41q-70 -8 -176 -11 q-61 -145 -143 -298.5t-182.5 -307t-210 -252t-199.5 -98.5q-94 0 -180 96l-22 21q-17 16 -29.5 31.5t-29 38t-24.5 49t-8 55.5zM186 158q0 -68 80 -68q49 0 155.5 114.5t196 257t89.5 208.5q0 43 -39 43q-63 0 -180 -104.5t-209.5 -238.5t-92.5 -212z" />
<glyph unicode="&#xf1;" horiz-adv-x="847" d="M-100 82q0 10 4 18q20 55 194 365.5t207 363.5q27 43 62 43q31 0 96 -44t65 -70q0 -14 -8 -29q-166 -279 -311 -489l189 206l244 268q103 114 120 134q23 23 47 22q33 0 98.5 -53t65.5 -84q0 -20 -25 -51q-319 -397 -319 -526q0 -20 13 -36t32 -14q49 0 151.5 98.5 t149.5 164.5q8 10 20 10q16 0 17 -25q0 -12 -4 -20q-59 -131 -183.5 -239.5t-251.5 -108.5h-5q-62 0 -97 48q-37 50 -37 134q0 61 53.5 171t114.5 185q-80 -55 -209 -198l-225 -256q-96 -113 -113 -113q-51 0 -103 41t-52 84zM432 999q0 78 13.5 110t76.5 73q70 45 129 45 q49 0 123 -41t113 -41q55 0 127 59q6 6 14 6q16 0 27.5 -27.5t11.5 -64.5q0 -80 -54.5 -128t-133.5 -48q-47 0 -115 39t-109 39q-66 0 -149 -66q-25 -23 -43 -22q-31 -1 -31 67z" />
<glyph unicode="&#xf2;" horiz-adv-x="768" d="M0 250q0 186 182.5 401t309.5 267q23 10 49 10q16 0 32.5 -5t27.5 -10.5t26.5 -15.5t21.5 -15t19 -18l12 -12q14 -14 47 -34.5t51.5 -36t34.5 -52.5t16 -90v-16q-4 -111 -94 -268.5t-218 -276.5t-224 -119q-94 0 -180 96l-22 21q-17 16 -29.5 31.5t-29 38t-24.5 49 t-8 55.5zM186 158q0 -68 80 -68q49 0 155.5 114.5t196 257t89.5 208.5q0 43 -39 43q-63 0 -180 -104.5t-209.5 -238.5t-92.5 -212zM471 1399q-3 6 -2 10q0 10 12 10q31 0 121 -38t125 -66q33 -27 39 -62q12 -63 98 -276q8 -15 8 -24q0 -15 -20 -15q-4 0 -8 2 q-16 2 -66.5 22.5t-66.5 24.5q-33 4 -68 37q-23 18 -33 39q-116 268 -139 336z" />
<glyph unicode="&#xf3;" horiz-adv-x="768" d="M0 250q0 186 182.5 401t309.5 267q23 10 49 10q16 0 32.5 -5t27.5 -10.5t26.5 -15.5t21.5 -15t19 -18l12 -12q14 -14 47 -34.5t51.5 -36t34.5 -52.5t16 -90v-16q-4 -111 -94 -268.5t-218 -276.5t-224 -119q-94 0 -180 96l-22 21q-17 16 -29.5 31.5t-29 38t-24.5 49 t-8 55.5zM186 158q0 -68 80 -68q49 0 155.5 114.5t196 257t89.5 208.5q0 43 -39 43q-63 0 -180 -104.5t-209.5 -238.5t-92.5 -212zM694 983q0 16 15 39q193 272 243 336q18 20 35 20q29 0 77 -37.5t48 -66.5t-31 -62q-66 -68 -219 -276q-27 -39 -55 -39q-4 0 -8 2 q-12 2 -40 22.5t-38 24.5q-27 6 -27 37z" />
<glyph unicode="&#xf4;" horiz-adv-x="768" d="M0 250q0 186 182.5 401t309.5 267q23 10 49 10q16 0 32.5 -5t27.5 -10.5t26.5 -15.5t21.5 -15t19 -18l12 -12q14 -14 47 -34.5t51.5 -36t34.5 -52.5t16 -90v-16q-4 -111 -94 -268.5t-218 -276.5t-224 -119q-94 0 -180 96l-22 21q-17 16 -29.5 31.5t-29 38t-24.5 49 t-8 55.5zM186 158q0 -68 80 -68q49 0 155.5 114.5t196 257t89.5 208.5q0 43 -39 43q-63 0 -180 -104.5t-209.5 -238.5t-92.5 -212zM506 1008q0 20 33 51l354 311q23 18 39 19q39 0 101.5 -42t62.5 -77q0 -14 -11 -35q-23 -45 -88 -258q-6 -35 -36 -35q-16 0 -52.5 20.5 t-48.5 24.5q-43 14 -43 55q0 2 23 101l-191 -166q-49 -35 -67 -35q-16 0 -34 20.5t-28 24.5q-14 5 -14 21z" />
<glyph unicode="&#xf5;" horiz-adv-x="768" d="M0 250q0 186 182.5 401t309.5 267q23 10 49 10q16 0 32.5 -5t27.5 -10.5t26.5 -15.5t21.5 -15t19 -18l12 -12q14 -14 47 -34.5t51.5 -36t34.5 -52.5t16 -90v-16q-4 -111 -94 -268.5t-218 -276.5t-224 -119q-94 0 -180 96l-22 21q-17 16 -29.5 31.5t-29 38t-24.5 49 t-8 55.5zM186 158q0 -68 80 -68q49 0 155.5 114.5t196 257t89.5 208.5q0 43 -39 43q-63 0 -180 -104.5t-209.5 -238.5t-92.5 -212zM360 1020q0 78 13.5 109.5t77.5 72.5q70 45 129 45q49 0 122.5 -41t112.5 -41q55 0 127 60q6 6 14 6q16 0 27.5 -27.5t11.5 -64.5 q0 -80 -54 -128t-134 -48q-47 0 -114.5 38.5t-108.5 38.5q-66 0 -150 -65q-25 -23 -43 -23q-31 0 -31 68z" />
<glyph unicode="&#xf6;" horiz-adv-x="768" d="M0 250q0 186 182.5 401t309.5 267q23 10 49 10q16 0 32.5 -5t27.5 -10.5t26.5 -15.5t21.5 -15t19 -18l12 -12q14 -14 47 -34.5t51.5 -36t34.5 -52.5t16 -90v-16q-4 -111 -94 -268.5t-218 -276.5t-224 -119q-94 0 -180 96l-22 21q-17 16 -29.5 31.5t-29 38t-24.5 49 t-8 55.5zM186 158q0 -68 80 -68q49 0 155.5 114.5t196 257t89.5 208.5q0 43 -39 43q-63 0 -180 -104.5t-209.5 -238.5t-92.5 -212zM375 1100q0 41 38 69.5t113.5 28.5t113.5 -29.5t38 -72.5q0 -45 -40 -81t-106 -36q-70 0 -113.5 37t-43.5 84zM780 1102q0 41 38 68.5 t114 27.5t113.5 -29.5t37.5 -72.5q0 -45 -41 -81t-104 -36q-70 0 -114 38t-44 85z" />
<glyph unicode="&#xf7;" horiz-adv-x="884" d="M143 621q0 43 8.5 67.5t31 35.5t42 13t62.5 2q90 0 326.5 -4t244.5 -4q41 0 95.5 -46t54.5 -87q0 -47 -84 -57q-117 -16 -398 -17q-213 0 -303 8q-80 11 -80 89zM221 340q0 41 38 69.5t114 28.5q74 0 112.5 -29.5t38.5 -72.5q0 -45 -40 -81t-105 -36q-70 0 -114 38 t-44 83zM575 926q0 41 38 69.5t114 28.5t114 -29.5t38 -72.5q0 -45 -40 -81t-106 -36q-70 0 -114 38t-44 83z" />
<glyph unicode="&#xf8;" horiz-adv-x="845" d="M0 -49q0 84 66 151q-66 70 -66 148q0 186 182.5 401t309.5 267q23 10 49 10q16 0 32.5 -5t27.5 -10.5t26.5 -15.5t21.5 -15t19 -18l12 -12l72 -49q33 33 51 49q29 27 45 27q20 0 39.5 -27t19.5 -47q0 -55 -80 -125q2 -12 2 -41v-16q-4 -111 -94 -268.5t-218 -276.5 t-224 -119q-63 0 -131 49l-43 -47q-61 -68 -90 -67.5t-29 57.5zM213 254l444 457q-84 -10 -233.5 -166t-210.5 -291zM238 94q16 -4 28 -4q55 0 182 144.5t205 287.5q-186 -174 -415 -428z" />
<glyph unicode="&#xf9;" horiz-adv-x="942" d="M0 225q0 37 8 64q6 23 18.5 49.5t34.5 60.5l40 64q17 29 52 74t52.5 69.5t57.5 73.5l52 64l54 66q41 50 43 52q29 37 65 37q41 0 104.5 -41t63.5 -78q0 -27 -24 -49q-160 -152 -278 -311.5t-148 -251.5q-8 -18 -9 -39q0 -25 25 -25t49 25q119 115 345 405.5t265 356.5 q10 18 35 18q47 0 103.5 -46t56.5 -91q0 -23 -21 -43q-82 -78 -241.5 -305t-159.5 -307q0 -33 31 -33q45 0 138 78t152.5 140.5t96.5 105.5q18 20 39 20q27 0 26 -29q0 -12 -8 -28q-72 -125 -223.5 -274.5t-257.5 -151.5h-6q-94 0 -132 67q-40 70 -40 170v15l-37 -45 q-39 -43 -58.5 -62.5t-55.5 -52.5t-65.5 -48.5t-54.5 -15.5h-3q-75 0 -130 78q-55 80 -55 174zM471 1399q-3 6 -2 10q0 10 12 10q31 0 121 -38t125 -66q33 -27 39 -62q12 -63 98 -276q8 -15 8 -24q0 -15 -20 -15q-4 0 -8 2q-16 2 -66.5 22.5t-66.5 24.5q-33 4 -68 37 q-23 18 -33 39q-116 268 -139 336z" />
<glyph unicode="&#xfa;" horiz-adv-x="942" d="M0 225q0 37 8 64q6 23 18.5 49.5t34.5 60.5l40 64q17 29 52 74t52.5 69.5t57.5 73.5l52 64l54 66q41 50 43 52q29 37 65 37q41 0 104.5 -41t63.5 -78q0 -27 -24 -49q-160 -152 -278 -311.5t-148 -251.5q-8 -18 -9 -39q0 -25 25 -25t49 25q119 115 345 405.5t265 356.5 q10 18 35 18q47 0 103.5 -46t56.5 -91q0 -23 -21 -43q-82 -78 -241.5 -305t-159.5 -307q0 -33 31 -33q45 0 138 78t152.5 140.5t96.5 105.5q18 20 39 20q27 0 26 -29q0 -12 -8 -28q-72 -125 -223.5 -274.5t-257.5 -151.5h-6q-94 0 -132 67q-40 70 -40 170v15l-37 -45 q-39 -43 -58.5 -62.5t-55.5 -52.5t-65.5 -48.5t-54.5 -15.5h-3q-75 0 -130 78q-55 80 -55 174zM725 1044q0 16 14 39q193 272 244 336q18 20 35 21q29 0 77 -38t48 -66.5t-31 -61.5q-66 -68 -219 -277q-27 -39 -55 -39q-4 0 -9 3q-12 2 -39.5 22.5t-37.5 24.5q-27 5 -27 36z " />
<glyph unicode="&#xfb;" horiz-adv-x="942" d="M0 225q0 37 8 64q6 23 18.5 49.5t34.5 60.5l40 64q17 29 52 74t52.5 69.5t57.5 73.5l52 64l54 66q41 50 43 52q29 37 65 37q41 0 104.5 -41t63.5 -78q0 -27 -24 -49q-160 -152 -278 -311.5t-148 -251.5q-8 -18 -9 -39q0 -25 25 -25t49 25q119 115 345 405.5t265 356.5 q10 18 35 18q47 0 103.5 -46t56.5 -91q0 -23 -21 -43q-82 -78 -241.5 -305t-159.5 -307q0 -33 31 -33q45 0 138 78t152.5 140.5t96.5 105.5q18 20 39 20q27 0 26 -29q0 -12 -8 -28q-72 -125 -223.5 -274.5t-257.5 -151.5h-6q-94 0 -132 67q-40 70 -40 170v15l-37 -45 q-39 -43 -58.5 -62.5t-55.5 -52.5t-65.5 -48.5t-54.5 -15.5h-3q-75 0 -130 78q-55 80 -55 174zM588 1008q0 20 33 51l354 311q23 18 39 19q39 0 101.5 -42t62.5 -77q0 -14 -11 -35q-23 -45 -88 -258q-6 -35 -37 -35q-16 0 -52 20.5t-48 24.5q-43 14 -43 55q0 2 23 101 l-191 -166q-49 -35 -67 -35q-16 0 -34 20.5t-28 24.5q-14 5 -14 21z" />
<glyph unicode="&#xfc;" horiz-adv-x="942" d="M0 225q0 37 8 64q6 23 18.5 49.5t34.5 60.5l40 64q17 29 52 74t52.5 69.5t57.5 73.5l52 64l54 66q41 50 43 52q29 37 65 37q41 0 104.5 -41t63.5 -78q0 -27 -24 -49q-160 -152 -278 -311.5t-148 -251.5q-8 -18 -9 -39q0 -25 25 -25t49 25q119 115 345 405.5t265 356.5 q10 18 35 18q47 0 103.5 -46t56.5 -91q0 -23 -21 -43q-82 -78 -241.5 -305t-159.5 -307q0 -33 31 -33q45 0 138 78t152.5 140.5t96.5 105.5q18 20 39 20q27 0 26 -29q0 -12 -8 -28q-72 -125 -223.5 -274.5t-257.5 -151.5h-6q-94 0 -132 67q-40 70 -40 170v15l-37 -45 q-39 -43 -58.5 -62.5t-55.5 -52.5t-65.5 -48.5t-54.5 -15.5h-3q-75 0 -130 78q-55 80 -55 174zM549 1100q0 41 38 69.5t113 28.5q74 0 113 -29.5t39 -72.5q0 -45 -40 -81t-105 -36q-70 0 -114 37t-44 84zM954 1102q0 41 38 68.5t114 27.5t113.5 -29.5t37.5 -72.5 q0 -45 -40.5 -81t-104.5 -36q-70 0 -114 38t-44 85z" />
<glyph unicode="&#xfd;" horiz-adv-x="894" d="M-348 -195q0 35 55 35q31 0 51.5 -11t28.5 -23.5t27 -47.5q53 -98 153 -98q104 0 237.5 163t192.5 294q-145 -117 -235 -117h-6q-57 0 -115.5 77t-58.5 138q0 51 23.5 115.5t50 114t83.5 125.5l84 111q27 34 93.5 111.5l74.5 86.5q33 41 58 41q8 0 20 -4.5t32.5 -13.5 t39.5 -15q78 -25 77 -78q0 -23 -20 -37q-37 -25 -193.5 -226.5t-216.5 -314.5q-37 -72 -36.5 -110.5t38.5 -38.5q47 0 119 49q76 51 313.5 364.5t254.5 362.5q8 25 34 25q37 0 108 -44t71 -75q0 -16 -17 -37q-182 -219 -346 -468t-241.5 -382t-178 -224t-215.5 -91 q-117 0 -223.5 46t-167.5 113q-49 51 -49 84zM797 1055q0 16 14 39q193 272 244 336q18 20 35 20q29 0 76.5 -38t47.5 -66q0 -27 -30 -62q-66 -68 -219 -276q-27 -39 -56 -39q-4 0 -8 2q-12 2 -39.5 22.5t-38.5 24.5q-26 6 -26 37z" />
<glyph unicode="&#xfe;" horiz-adv-x="872" d="M-410 -410q0 53 19 82l556 858q548 846 564 877q16 35 50 43q8 2 17 2q26 0 52 -18q65 -46 65 -102q0 -19 -8 -40q-20 -51 -75 -130l-137 -191q-83 -113 -138 -199q45 33 106.5 62.5t94.5 29.5q35 0 55 -14t39.5 -47t28.5 -41q4 -4 18 -20.5l22.5 -26.5t16.5 -37t8 -63 q0 -76 -86 -215q-88 -142 -225 -262t-252 -120q-66 0 -127 58q-53 49 -86 106q-158 -221 -270.5 -416.5t-149.5 -266t-55 -70.5q-103 -1 -103 161zM291 266q0 -55 76 -55q84 0 242.5 198.5t158.5 295.5q0 41 -39 40q-41 0 -147.5 -90t-198.5 -208t-92 -181z" />
<glyph unicode="&#xff;" horiz-adv-x="894" d="M-348 -195q0 35 55 35q31 0 51.5 -11t28.5 -23.5t27 -47.5q53 -98 153 -98q104 0 237.5 163t192.5 294q-145 -117 -235 -117h-6q-57 0 -115.5 77t-58.5 138q0 51 23.5 115.5t50 114t83.5 125.5l84 111q27 34 93.5 111.5l74.5 86.5q33 41 58 41q8 0 20 -4.5t32.5 -13.5 t39.5 -15q78 -25 77 -78q0 -23 -20 -37q-37 -25 -193.5 -226.5t-216.5 -314.5q-37 -72 -36.5 -110.5t38.5 -38.5q47 0 119 49q76 51 313.5 364.5t254.5 362.5q8 25 34 25q37 0 108 -44t71 -75q0 -16 -17 -37q-182 -219 -346 -468t-241.5 -382t-178 -224t-215.5 -91 q-117 0 -223.5 46t-167.5 113q-49 51 -49 84zM651 1100q0 41 38 69.5t114 28.5q74 0 112.5 -29.5t38.5 -72.5q0 -45 -40 -81t-105 -36q-70 0 -114 37t-44 84zM1057 1102q0 41 38 68.5t113.5 27.5t113.5 -29.5t38 -72.5q0 -45 -41 -81t-105 -36q-70 0 -113.5 38t-43.5 85z " />
<glyph unicode="&#x152;" horiz-adv-x="1867" d="M102 342q0 129 89.5 326.5t214 375t273 305.5t257.5 128q33 0 70 -17q37 -20 58 -45.5t46 -65.5t55 -71q23 -23 67 -57.5t64.5 -62.5t30.5 -71l121 185q-16 45 -16 82q0 35 16 41q31 14 289 42.5t334 30.5h34q61 0 99.5 -12t101.5 -55q35 -25 35 -62q0 -27 -23 -30 q-35 -12 -534 -92q-195 -256 -340 -467q313 47 438 47h8q29 -2 72 -35t57 -51q6 -6 6 -19q0 -37 -55 -37q-92 0 -316 -45t-392 -137l-158 -262q117 27 268.5 49.5t198.5 22.5h4q74 -4 126 -38t52 -83v-4q0 -16 -106 -42l-291 -72q-184 -46 -318 -101q-4 -2 -18 -2 q-55 0 -118.5 46t-86.5 99q-66 -55 -159 -92t-173 -37q-74 0 -116 37q-45 43 -107.5 92t-88.5 78t-50 78q-19 43 -19 100zM342 268q0 -49 24.5 -87t71.5 -38q100 0 263 186.5t284 405.5t121 316q0 43 -21.5 77.5t-62.5 34.5q-92 0 -256 -162.5t-294 -380t-130 -352.5z" />
<glyph unicode="&#x153;" horiz-adv-x="1323" d="M0 250q0 186 182.5 401t309.5 267q23 10 49 10q16 0 32.5 -5t27.5 -10.5t26.5 -15.5t21.5 -15t19 -18l12 -12q14 -12 54 -35.5t61.5 -51.5t29.5 -73q80 82 195 171t182 89h7q37 0 63 -21q29 -24 74 -91q4 -4 17 -24l19 -29q6 -9 15.5 -27.5t13.5 -35.5t4 -36 q0 -121 -106.5 -231.5t-246.5 -171t-255 -60.5h-6q-16 -45 -17 -78q0 -88 113 -88q86 0 198.5 62.5t170 112t104.5 96.5q4 4 10 4q14 0 29.5 -16.5t15.5 -36.5q0 -10 -6 -19q-59 -109 -217 -215t-260 -106q-53 0 -116.5 29.5t-110.5 82.5l-25 25q-18 18 -28.5 29.5t-23.5 32 t-24 40.5q-184 -221 -321 -221q-94 0 -180 96l-22 21q-17 16 -29.5 31.5t-29 38t-24.5 49t-8 55.5zM186 158q0 -68 80 -68q49 0 155.5 114.5t196 257t89.5 208.5q0 43 -39 43q-63 0 -180 -104.5t-209.5 -238.5t-92.5 -212zM881 373h3q91 0 224 124q135 126 135 175 q0 10 -10 10q-68 0 -179.5 -110.5t-172.5 -198.5z" />
<glyph unicode="&#x178;" horiz-adv-x="839" d="M-143 104q0 27 22 48q10 8 63 58l151 146l192 183v61q0 139 6 450.5t6 331.5q0 39 31.5 67t83.5 28q70 0 116.5 -42t46.5 -112q0 -18 -2 -27q-35 -287 -34 -440q0 -55 2 -80q614 559 807 637q41 16 92 17q49 0 103 -28t54 -71q0 -29 -34 -57q-285 -227 -726.5 -622.5 t-707.5 -706.5q-23 -29 -53 -29q-53 0 -136 69.5t-83 118.5zM754 1622q0 41 37.5 69.5t113.5 28.5q74 0 113 -29.5t39 -72.5q0 -45 -40 -81t-106 -36q-70 0 -113.5 37t-43.5 84zM1159 1624q0 41 38 68.5t114 27.5t113.5 -29.5t37.5 -72.5q0 -45 -41 -81t-104 -36 q-70 0 -114 38t-44 85z" />
<glyph unicode="&#x2c6;" horiz-adv-x="1191" d="M711 936q0 20 32 51q281 250 355 311q23 18 39 19q39 0 101 -42t62 -77q0 -14 -10 -35q-23 -45 -88 -258q-6 -35 -37 -35q-16 0 -52 20.5t-48 24.5q-43 14 -43 56q0 2 22 100l-190 -166q-49 -35 -68 -35q-16 0 -33.5 20.5t-27.5 24.5q-14 5 -14 21z" />
<glyph unicode="&#x2dc;" horiz-adv-x="1191" d="M688 999q0 78 13.5 110t76.5 73q70 45 129 45q49 0 123 -41t113 -41q55 0 127 59q6 6 14 6q16 0 27.5 -27.5t11.5 -64.5q0 -80 -54.5 -128t-133.5 -48q-47 0 -115 39t-109 39q-66 0 -149 -66q-25 -23 -43 -22q-31 -1 -31 67z" />
<glyph unicode="&#x2013;" horiz-adv-x="1064" d="M143 621q0 76 26 97t97 21q78 0 422 -4t350 -4q35 0 82 -46t47 -87q0 -45 -71 -57q-100 -16 -623 -17q-184 0 -262 8q-68 11 -68 89z" />
<glyph unicode="&#x2014;" horiz-adv-x="2088" d="M143 621q0 76 26 97t97 21q78 0 934 -4t862 -4q35 0 82 -46t47 -87q0 -45 -71 -57q-100 -16 -1051 -17q-780 0 -858 8q-68 11 -68 89z" />
<glyph unicode="&#x2018;" horiz-adv-x="374" d="M369 911q0 33 98 159t176 194q25 23 53 22q47 0 47 -49q0 -70 -96 -239t-164 -169q-43 0 -78.5 25.5t-35.5 56.5z" />
<glyph unicode="&#x2019;" horiz-adv-x="395" d="M410 879q0 6 4 30q20 59 55 136t94.5 159t106.5 82q43 0 78.5 -24.5t35.5 -57.5q0 -45 -137 -210t-190 -165q-47 1 -47 50z" />
<glyph unicode="&#x201a;" horiz-adv-x="219" d="M-287 -143q0 68 80 214t144 146q43 0 70.5 -35t27.5 -67q0 -43 -125 -168t-168 -125q-29 0 -29 35z" />
<glyph unicode="&#x201c;" horiz-adv-x="659" d="M369 911q0 33 98 159t176 194q25 23 53 22q47 0 47 -49q0 -70 -96 -239t-164 -169q-43 0 -78.5 25.5t-35.5 56.5zM653 911q0 33 99.5 159t177.5 194q23 23 53 22q45 0 45 -49q0 -70 -96 -239t-164 -169q-43 0 -79 25.5t-36 56.5z" />
<glyph unicode="&#x201d;" horiz-adv-x="679" d="M410 879q0 6 4 30q20 59 55 136t94.5 159t106.5 82q43 0 78.5 -24.5t35.5 -57.5q0 -45 -137 -210t-190 -165q-47 1 -47 50zM694 879q0 12 6 30q35 106 111 241.5t143 135.5q43 0 79 -24.5t36 -57.5q0 -45 -137 -210t-191 -165q-47 1 -47 50z" />
<glyph unicode="&#x201e;" horiz-adv-x="495" d="M-287 -143q0 68 80 214t144 146q43 0 70.5 -35t27.5 -67q0 -43 -125 -168t-168 -125q-29 0 -29 35zM-10 -143q0 68 80 214t143 146q43 0 70.5 -35t27.5 -67q0 -43 -125 -168t-168 -125q-28 0 -28 35z" />
<glyph unicode="&#x2022;" horiz-adv-x="489" d="M123 504q0 86 106.5 225t186.5 139q33 0 73 -41q4 -4 33 -21.5t39 -36.5t10 -56q-2 -90 -103 -228.5t-187 -138.5q-47 0 -102.5 55.5t-55.5 102.5z" />
<glyph unicode="&#x2026;" horiz-adv-x="1331" d="M82 25q0 55 47 123.5t102 68.5q43 0 71 -35t28 -67q0 -47 -57.5 -115t-102.5 -68q-37 0 -62.5 28t-25.5 65zM492 25q0 55 47 123.5t102 68.5q43 0 70.5 -35t27.5 -67q0 -47 -57 -115t-102 -68q-37 0 -62.5 28t-25.5 65zM901 25q0 55 47 123.5t103 68.5q43 0 70.5 -35 t27.5 -67q0 -47 -57.5 -115t-102.5 -68q-37 0 -62.5 28t-25.5 65z" />
<glyph unicode="&#x2039;" horiz-adv-x="487" d="M61 348q0 43 22.5 137.5t45.5 104.5q12 16 21 22q23 23 413 318q10 6 15 6q33 0 32 -66q0 -92 -82 -174q-102 -102 -290 -243l56 -85l53 -83l24 -37q8 -14 8 -74q0 -76 -15.5 -144.5t-44.5 -68.5q-6 0 -18 8q-45 35 -125 149.5t-104 170.5q-11 20 -11 59z" />
<glyph unicode="&#x203a;" horiz-adv-x="505" d="M-20 -4q0 53 20 110.5t53 88.5q20 18 322 229q-115 137 -156 219q-10 18 -10 57q0 41 23.5 132.5t50.5 91.5q4 0 10 -6q8 -4 59 -76l107 -152l59 -86q8 -10 8 -65q0 -178 -92 -267q-76 -70 -222 -176t-196 -133q-6 -4 -16 -4q-20 0 -20 37z" />
<glyph unicode="&#x20ac;" horiz-adv-x="946" d="M0 498q0 88 141 88h70l18 45q-111 4 -147 6q-55 2 -55 39q0 88 149 88q14 0 53 -1t64 -1q117 201 297 363.5t282 162.5q20 0 35 -8q31 -16 54.5 -39.5t43 -51.5t29.5 -36q76 -72 76 -145q0 -53 -63.5 -151.5t-110.5 -125.5q-25 -12 -47 -12q-41 0 -68.5 37t-27.5 80 q0 49 69.5 120.5t73.5 79.5q10 16 10 27q0 12 -14 12q-76 0 -177.5 -91t-199.5 -224q72 -2 139 -2q27 0 48.5 -18.5t21.5 -41.5q0 -49 -105 -57q-98 -8 -188 -8q-10 -18 -31 -51q35 0 77 -1t44 -1q25 0 47.5 -18.5t22.5 -39.5q0 -51 -107 -59q-43 -4 -137 -8 q-12 -49 -12 -93q0 -129 92 -129q59 0 172 92.5t197 183.5t139 161q6 10 16 10q29 0 29 -51q0 -37 -23 -90q-20 -53 -62 -118t-102.5 -133.5t-144.5 -114.5t-170 -46q-72 0 -121 19.5t-100 70.5l-33 34q-23 24 -32 35t-21 28.5t-16 31.5q-10 45 -11 84q0 16 2 23 q-96 4 -131 6q-55 6 -55 39z" />
<glyph unicode="&#x2122;" horiz-adv-x="1363" d="M287 772q0 12 4 25q16 55 272 436l-53 -4q-53 -6 -84 -10h-10q-20 0 -43 24.5t-23 46.5q0 27 39 31q86 14 471 14q92 0 117 -4q23 -8 22 -28q0 -23 -32 -23q-63 -6 -219 -25q-96 -115 -195.5 -272.5t-144.5 -263.5q-18 -47 -41 -47q-12 0 -29 10q-51 27 -51 90zM696 762 q0 14 11 29q12 12 179 266t181 280q6 12 14 13q6 0 14.5 -5.5t21.5 -15.5t24 -16q6 -4 22.5 -12.5t25.5 -14.5t17 -18.5t8 -28.5q0 -6 -4 -27q-4 -14 -39.5 -127.5t-40.5 -150.5q-2 -4 -2 -8q0 -10 9 -11q10 0 24 11q29 20 93 81l118 113l123 124l72 73q12 12 28 12 q35 0 68 -29.5t45 -64.5q4 -16 4 -21q0 -6 -18 -26q-49 -66 -105.5 -151t-94.5 -148l-69 -116q-31 -52 -32 -54q-16 -27 -39 -27q-25 0 -51.5 29t-26.5 51q0 6 4 19l154 280l-81 -85q-75 -79 -132.5 -125t-92.5 -46q-47 0 -72.5 34t-25.5 81q0 33 10 131l-118 -184 l-105 -162q-18 -20 -45 -20.5t-51.5 21t-24.5 46.5z" />
<glyph unicode="&#xe000;" horiz-adv-x="915" d="M0 915h915v-915h-915v915z" />
<glyph unicode="&#xfb01;" horiz-adv-x="1011" d="M-420 -549q12 139 192.5 459.5t398.5 633.5l404 559q186 247 222 269q23 14 47 14q51 0 97 -55t46 -94q0 -10 -4 -14q-119 -143 -388 -500.5t-351 -484.5q70 -10 124 -57q52 -44 52 -107q0 -142 -82 -366t-225.5 -413.5t-284.5 -189.5q-61 0 -154.5 101.5t-93.5 222.5v22 zM-252 -705q0 -76 41 -75q49 0 151.5 128t200 331.5t115.5 375.5v2q0 16 -25.5 26.5t-52.5 10.5q-10 0 -14 -2q-23 -6 -123 -155.5t-196.5 -345.5t-96.5 -296zM516 180q0 195 387 703q33 43 66 43q39 0 111 -45q71 -44 71 -76q0 -19 -25 -49q-166 -186 -292.5 -395 t-133.5 -279q0 -20 11 -21q61 0 189 106.5t235 227.5q12 12 20 13q27 0 27 -51v-15q0 -27 -13 -47q-35 -59 -200.5 -201.5t-251.5 -142.5q-78 0 -139.5 72.5t-61.5 156.5zM1114 1250q47 34 137 34q88 0 131 -36q39 -33 40 -78q0 -4 -1 -9q-4 -53 -54 -95t-128 -42 q-82 0 -131 44q-45 41 -45 91q-1 54 51 91z" />
<glyph unicode="&#xfb02;" horiz-adv-x="1161" d="M-420 -549q12 139 192.5 459.5t398.5 633.5l404 559q186 247 222 269q23 14 47 14q51 0 97 -55t46 -94q0 -10 -4 -14q-119 -143 -388 -500.5t-351 -484.5q70 -10 124 -57q52 -44 52 -107q0 -142 -82 -366t-225.5 -413.5t-284.5 -189.5q-61 0 -154.5 101.5t-93.5 222.5v22 zM-252 -705q0 -76 41 -75q49 0 151.5 128t200 331.5t115.5 375.5v2q0 16 -25.5 26.5t-52.5 10.5q-10 0 -14 -2q-23 -6 -123 -155.5t-196.5 -345.5t-96.5 -296zM516 170q0 139 98.5 332.5t231.5 358.5t255 291t183 161q23 14 49 14q47 0 137 -82l34 -26q24 -18 35 -28.5 t21.5 -29t10.5 -39.5q0 -16 -6 -37q-35 -115 -121 -221t-195.5 -184t-212 -133t-196.5 -90q-115 -205 -115 -314q0 -66 71.5 -65.5t183.5 68t226 200.5q18 20 33 21q35 0 35 -54q0 -37 -23 -61q-131 -158 -259 -232.5t-220 -74.5q-70 0 -108 39q-8 8 -56.5 48t-70 70.5 t-21.5 67.5zM963 647q143 51 292.5 212t149.5 212q0 8 -6 8q-66 -8 -190.5 -133t-245.5 -299z" />
<glyph unicode="&#xfb03;" horiz-adv-x="1538" d="M-420 -549q12 139 192.5 459.5t398.5 633.5l404 559q186 247 222 269q23 14 47 14q51 0 97 -55t46 -94q0 -10 -4 -14q-119 -143 -388 -500.5t-351 -484.5q70 -10 124 -57q52 -44 52 -107q0 -142 -82 -366t-225.5 -413.5t-284.5 -189.5q-61 0 -154.5 101.5t-93.5 222.5v22 zM-252 -705q0 -76 41 -75q49 0 151.5 128t200 331.5t115.5 375.5v2q0 16 -25.5 26.5t-52.5 10.5q-10 0 -14 -2q-23 -6 -123 -155.5t-196.5 -345.5t-96.5 -296zM106 -549q12 139 192.5 459.5t398.5 633.5l405 559q186 247 221 269q23 14 47 14q51 0 97 -55t46 -94 q0 -10 -4 -14q-119 -143 -388 -500.5t-351 -484.5q70 -10 124 -57q52 -44 52 -107q0 -142 -82 -366t-225 -413.5t-285 -189.5q-61 0 -154.5 101.5t-93.5 222.5v22zM274 -705q0 -76 41 -75q49 0 151.5 128t200 331.5t115.5 375.5v2q0 16 -25.5 26.5t-51.5 10.5q-10 0 -15 -2 q-23 -6 -123 -155.5t-196.5 -345.5t-96.5 -296zM1042 180q16 217 388 703q33 43 65 43q39 0 112 -45q71 -44 70 -76q0 -19 -24 -49q-166 -186 -293 -395t-133 -279q0 -20 10 -21q61 0 189 106.5t235 227.5q12 12 20 13q27 0 28 -51q0 -7 -1 -15q0 -27 -12 -47 q-35 -59 -201 -201.5t-252 -142.5q-80 0 -143 73q-58 66 -58 141q-1 8 0 15zM1640 1250q47 34 138 34q88 0 131 -36q39 -33 39 -78v-9q-4 -53 -54.5 -95t-128.5 -42q-82 0 -131 44q-45 41 -45 91q-1 54 51 91z" />
<glyph unicode="&#xfb04;" horiz-adv-x="1687" d="M-420 -549q12 139 192.5 459.5t398.5 633.5l404 559q186 247 222 269q23 14 47 14q51 0 97 -55t46 -94q0 -10 -4 -14q-119 -143 -388 -500.5t-351 -484.5q70 -10 124 -57q52 -44 52 -107q0 -142 -82 -366t-225.5 -413.5t-284.5 -189.5q-61 0 -154.5 101.5t-93.5 222.5v22 zM-252 -705q0 -76 41 -75q49 0 151.5 128t200 331.5t115.5 375.5v2q0 16 -25.5 26.5t-52.5 10.5q-10 0 -14 -2q-23 -6 -123 -155.5t-196.5 -345.5t-96.5 -296zM106 -549q12 139 192.5 459.5t398.5 633.5l405 559q186 247 221 269q23 14 47 14q51 0 97 -55t46 -94 q0 -10 -4 -14q-119 -143 -388 -500.5t-351 -484.5q70 -10 124 -57q52 -44 52 -107q0 -142 -82 -366t-225 -413.5t-285 -189.5q-61 0 -154.5 101.5t-93.5 222.5v22zM274 -705q0 -76 41 -75q49 0 151.5 128t200 331.5t115.5 375.5v2q0 16 -25.5 26.5t-51.5 10.5q-10 0 -15 -2 q-23 -6 -123 -155.5t-196.5 -345.5t-96.5 -296zM1042 170q0 139 98.5 332.5t231.5 358.5t255 291t183 161q23 14 50 14q47 0 137 -82l34 -26q24 -18 35 -28.5t21 -29t10 -39.5q0 -16 -6 -37q-35 -115 -122 -221t-195.5 -184t-211 -133t-196.5 -90q-115 -205 -115 -314 q0 -66 72 -65.5t183.5 68t226.5 200.5q18 20 32 21q35 0 35 -54q0 -37 -22 -61q-131 -158 -259 -232.5t-221 -74.5q-70 0 -108 39q-8 8 -56.5 48t-70 70.5t-21.5 67.5zM1487 647q143 51 293.5 212t150.5 212q0 8 -6 8h-2q-63 -8 -188 -133t-248 -299z" />
</font>
</defs>
</svg>
